<?xml version="1.0" encoding="UTF-8"?>
<svg version="1.1" viewBox="0 0 992 1132" width="1280" height="1280" xmlns="http://www.w3.org/2000/svg">
<path transform="translate(506,95)" d="m0 0h33l23 4 18 6 16 8 15 9 11 9 17 16 10 13 9 15 8 17 6 20 3 16 1 10v20l-2 16-5 22-6 16-6 12-9 14-8 10-9 10-66 66h-2l-1 3h30l21 2 23 4 26 7 18 6 30 15 17 11 16 12 10 9 8 7 13 13 9 11 12 16 10 16 11 21 8 19 7 23 5 23 3 21 1 15v17l-2 21-5 23-9 27-12 23-14 21-11 14-9 11-11 12-7 8-174 174-5 6-8 7-10 9-17 11-16 8-18 6-23 5-8 1h-26l-18-3-21-6-17-7-13-8-12-9-20-18-11-14-9-15-7-14-5-15-5-23-1-6v-32l6-29 7-19 8-15 8-12 8-10 10-10 7-8 11-10 7-8 40-40h2v-2h-35l-30-3-25-6-31-11-23-11-24-15-14-11-13-11-19-19-11-14-10-14-11-18-13-27-7-19-6-24-5-29-1-8v-30l5-31 7-26 8-20 13-25 10-15 11-14 11-12 204-204 14-11 21-12 17-7 19-5zm-24 364-22 4-15 5-17 9-16 12-9 8-7 8-9 12-12 23-5 15-3 15-1 9v19l2 16 5 18 10 21 7 11 8 10 6 7 11 9 12 9 16 8 16 6 15 4 14 2h18l27-5 13-5 19-10 12-9 10-9 9-9 10-14 10-19 6-18 3-16 1-11v-11l-3-23-5-17-9-19-7-11-9-11-5-6-8-7-12-9-17-10-16-6-18-4-6-1z" fill="#2654FD"/>
<path transform="translate(506,95)" d="m0 0h33l23 4 18 6 16 8 15 9 11 9 17 16 10 13 9 15 8 17 6 20 3 16 1 10v20l-2 16-5 22-6 16-6 12-9 14-8 10-9 10-53 53-13 1-18 4-15 5-13 4-24 10-22 12-24 16-3 3-1 3-17 9-16 12-8 7-7 8-9 12-12 23-5 15-3 15-1 9v19l2 16 5 18 10 21 7 11 8 10 5 5v2l4 2 9 8 15 10 18 8 19 6 19 3h18l27-5 3 1-10 7-16 8-21 8-19 6-11 2-25 3-2 1h-37l-30-3-25-6-31-11-23-11-24-15-14-11-13-11-19-19-11-14-10-14-11-18-13-27-7-19-6-24-5-29-1-8v-30l5-31 7-26 8-20 13-25 10-15 11-14 11-12 204-204 14-11 21-12 17-7 19-5z" fill="#06FCFE"/>
<path transform="translate(565,411)" d="m0 0h12l-6 7-6 6h-2l-1 3h30l21 2 23 4 26 7 18 6 30 15 17 11 16 12 10 9 8 7 13 13 9 11 12 16 10 16 11 21 8 19 7 23 5 23 3 21 1 15v17l-2 21-5 23-9 27-12 23-14 21-11 14-9 11-6 5-5 3-7 6-5 5h-2l-2 5-4 3h-6l-1-1-1-9-10-10-8-9-4-3v-3h-2l-8-13-9-11-9-7v-2l-4-2-8-7-5-5-5-6-2-5-2-3-10-4v-2l-7-1-5 2 6-7 5-6h2l2-6 1-2h-2l-1-4 3-7h-2l-1-4-6-2-4-3v-2l-5-2-5-3-1-1h-10l-2-3h-3v-5l-5-1-4-2-9-1-2-6-9 1-11 2-4 2-4-1 3-6 10-8 12-12 10-14 10-19 6-18 3-16 1-11v-11l-3-23-5-17-9-19-7-11-9-11-4-4v-2l-4-2-10-9-21-13-15-6-16-4-11-2h-29l-22 4-13 4h-2l2-4 9-7 11-7 15-9 15-8 25-10 18-6z" fill="#660DFB"/>
<path transform="translate(293,264)" d="m0 0 2 3-3 4 1 7v8l-2 9 4 12v3l-3 1-1 8 1 12 1 7-2 3v6l-1 4 2 4-1 3 4 5 4 7 3 10 7 13 4 15 5 11 3 12 2 3 2 10 3 9 3 25 3 24 3 12 1 20-3 19-5 26-1 26-1 7v20l-1 5v22l-2 10-6 8-1 3v11l-4 13-1 4 1 3-2 5h4l3 5v2l5 2 19 9 5 2v5l-8-1-31-11-23-11-24-15-14-11-13-11-19-19-11-14-10-14-11-18-13-27-7-19-6-24-5-29-1-8v-30l5-31 7-26 8-20 13-25 10-15 11-14 11-12 33-33 5-3 18-18 5-3z" fill="#04DFFE"/>
<path transform="translate(333,224)" d="m0 0 1 2-4 5 2 7 3 3v6l5-3 6 11-1 4-3 2 1 6 2 13h2l1 5h2l2-4 2 1 1 7 6-2 2 5 5-2 3 7-1 4-1 2 1 9v12l4 6 5 4 11 5 5 5v10l-2 15 3-2 5 1 1 4-2 2 2 6-3 15 4-1-4 16-2 4-1-2h-2l-2 9-1 3v20l1 2 2-4 5 10v3l-3 1 2 13 2 16-1 7-6 9-3 6v7l-9 16-7 15-5 19-2 15v19l2 16 5 18 10 21 7 11 8 10 5 5v2l4 2 9 8 15 10 18 8 19 6 19 3h18l27-5 3 1-10 7-16 8-21 8-19 6-11 2-25 3-2 1h-37l-30-3-18-4v-5l-28-14-3-5v-2h-4l1-7-1-4 3-8 2-9v-8l3-6 4-5 2-10v-22l1-5v-23l1-4 1-26 7-37 1-13-1-15-4-18-2-18-3-25-4-13-2-7-3-9-3-10-4-10-3-11-7-13-3-10-7-11-1-2 1-4-2-2 1-10 2-3-2-21 2-7h3l-5-15 2-9v-8l-1-8 3-1-1-4-17 17-2-1 28-28 4-2z" fill="#02EBFE"/>
<path transform="translate(249,308)" d="m0 0 1 3-5 6-4 7h-2v7l2 5 3-3 2 11 1 2v13h-2l-1 9 1 14-2 3-2 16-2 4-1 19 5 12 3 17 3 10 5 4 3 8v8l2 3 1 7-1 2 3 19 1 21v55l1 17 1 8-2 7v25l3 11v18l-3 6-2 6-5-2-12-6-5-2v-2l-5-2v-2l-5-2-5-6-7-3-6-5-12-16-11-17-12-23-10-24-7-26-5-26-2-15v-30l5-31 7-26 8-20 13-25 10-15 6-7 8-7z" fill="#03CFFE"/>
<path transform="translate(475,932)" d="m0 0h1l1 8 3-1 10 5 1 3 1 6 5 16 5 5 8 7h7l5 5 8 9 3 5 1 3h2l4 5 6 4 6 5 8 5 6 3 1 1v10l-2 3 6-3 5-5 4-3h5l2-5 7-5 5-6 8-7 5-5 2 1-28 28-5 6-8 7-10 9-17 11-16 8-18 6-23 5-8 1h-26l-18-3-21-6-17-7-13-8-12-9-10-9-7-6h3l5-1 6-5 2-3h2v-2l8-7 11-11h2l2-4h2l2-4h2l2-4h2l2-4 8-8h2l2-4h2l2-4h2l2-4h2l2-4 8-8h2v-2l8-7 10-7 5-4h2v-2z" fill="#3A91FE"/>
<path transform="translate(368,659)" d="m0 0h7l7 4 12 10 4 14 3 3h7l1-5 8 6 15 10 18 8 19 6 19 3h18l27-5 3 1-10 7-16 8-21 8-19 6-11 2-25 3-2 1h-17l-2-4-11-3-8-3-9-3-6-6-1-14 2-1-1-10-2-2-2-3-2-7-1-8-3-14z" fill="#05FCFE"/>
<path transform="translate(475,932)" d="m0 0h1l1 8 3-1 10 5 1 3 1 6 5 16 5 5 8 7h7l5 5 8 9 3 5 1 3h2l4 5 6 4 6 5 8 5 6 3 1 1v10l-2 3 6-3 5-5 4-3h5l2-5 7-5 5-6 8-7 5-5 2 1-28 28-5 6-16 14-5 1-4 4-15 4-7 2-1-4 1-5-5-5-5-4-7-4-6-8-6-4-6-7-6-5-4-5v-2h-2l-5-5-8-9-5-12-6-14-5-4-2-5 1-3-3 1v-4l4-5 3-5 6-5h2v-2z" fill="#3A84FE"/>
<path transform="translate(344,278)" d="m0 0 1 2h2l1 5h2l2-4 2 1 1 7 6-2 2 5 5-2 3 7-1 4-1 2 1 9v12l4 6 5 4 11 5 5 5v10l-2 15 3-2 5 1 1 4-2 2 2 6-3 15 4-1-4 16-2 4-1-2h-2l-2 9-1 3v20l1 2 2-4 5 10v3l-3 1 2 13 2 16-1 7-6 9-3 6v7l-9 16-1 2-5-1 1-9 8-16 3-5 1-9-1-3-1-20-2-11-5-10-1-9 2-16 6-15 3-14-1-4-4 1-9-2v-8l3-3 3-4 2-8v-12l-2-4-5-2-7-1-2-1v-2l-8-2-5-8-2-16-1 7-2 3h-2l-1-9v-8l-2-5-3-2-1-5h-4l-1 6-1-4v-7l5-2-3-10 7-3z" fill="#02F3FE"/>
<path transform="translate(365,632)" d="m0 0 3 3 2 10 7 11 9 7 4 4 4 1 9 10 1 3 4 2 2 6-2 2h-7l-4-4-4-14-11-9-7-4-7-1 3 17 3 13 1 8 2 5 3 3 1 10-3 1 2 14 7 6 13 4 8 3 6 2 1 2h-13l-3-3-8-3-11-4-5-2-9-2-2-3 1-7-5-1-1-4 1-6h-4l-2-13h4l2-6 1-2-1-13-3-12-1-11 3-9 3 1 1-14z" fill="#02F3FE"/>
<path transform="translate(565,411)" d="m0 0h12l-6 7-6 6h-2l-1 3 2 2-13 2-28 6-24 5-12 5-10 6-3 6 1 2-19 4-11 3 2-4 9-7 11-7 15-9 15-8 25-10 18-6z" fill="#2655FD"/>
<path transform="translate(533,713)" d="m0 0 3 1-10 7-16 8-21 8-19 6-11 2-25 3-5 1 2-5 9-3 23-2 18-4 12-4 9-4 11-9 4-2z" fill="#03E6FF"/>
<path transform="translate(569,408)" d="m0 0h8l1 3-13 1-18 4-15 5-13 4-24 10-22 12-24 16-3 3-1 3h-4l2-4 6-5h2l2-4 3-2h3v-2l10-7 17-10 9-4 12-5 7-4 16-5 10-3 20-4z" fill="#03D8FF"/>
<path transform="translate(362,582)" d="m0 0 4 1 2 25 1 9h-2v8l-2 4-5-3-2-4v-9l1-4-3-6v-7l3-11z" fill="#02F3FE"/>
<path transform="translate(250,303)" d="m0 0 2 3-49 49-2-1 12-14z" fill="#7AEFFE"/>
<path transform="translate(482,737)" d="m0 0 3 1-15 5-11 2-25 3-5 1 1-3 9-3 5-1 18-1 12-2 1-1z" fill="#03CFFF"/>
<path transform="translate(364,558)" d="m0 0 5 3-2 18-2 3v-2h-2l-1-3v-17z" fill="#02F3FE"/>
<path transform="translate(533,713)" d="m0 0 3 1-10 7-16 8-10 4-3-1 18-8h2v-2h2l1-5 10-2z" fill="#03D0FF"/>
<path transform="translate(529,714)" d="m0 0 2 1-5 2h-6l-1 5-9 3-5 1 5-5 3-4z" fill="#02EFFE"/>
<path transform="translate(612 1e3)" d="m0 0 2 1-27 27-1-4 8-6 5-6 8-7z" fill="#3A8CFE"/>
<path transform="translate(444,742)" d="m0 0h10v1l-5 1-1 2-14 2-5 1 1-3 9-3z" fill="#03D5FF"/>
<path transform="translate(329,235)" d="m0 0 4 4v2l-5 5h-3l-2-3 3-4h2z" fill="#02F3FF"/>
<path transform="translate(400,677)" d="m0 0 4 2 2 4v4l-5-1-2-5z" fill="#03ECFE"/>
<path transform="translate(473,737)" d="m0 0h9v1l-7 1-6 2-11 1 2-2z" fill="#03E6FF"/>
<path transform="translate(454,457)" d="m0 0 2 1-9 7-2 4h-4l2-4 6-5h2v-2z" fill="#03D1FF"/>
<path transform="translate(526,716)" d="m0 0 4 1-6 3-5 2 1-5z" fill="#04DFFF"/>
<path transform="translate(462,450)" d="m0 0 2 1-5 5-7 2 4-4h3v-2z" fill="#03DBFF"/>
<path transform="translate(289,276)" d="m0 0 3 2-1 5-3 2-1-6z" fill="#03EBFF"/>
</svg>
