<svg width="1440" height="840" viewBox="0 0 1440 840" fill="none" xmlns="http://www.w3.org/2000/svg">
<rect y="20" width="1440" height="540" fill="#D3EDF6"/>
<path d="M1330.47 371.973C1232.84 455.059 1111.85 430.097 1008.99 362.888C906.12 295.679 814.494 190.254 715.302 109.735C616.093 29.2165 502.471 -26.7543 395.141 15.4378C305.294 50.7544 230.497 150.961 169.526 263.041C108.537 375.121 58.0685 501.504 -4.04419 611.954C-39.7984 675.519 -90.0154 738.2 -141.289 714.011" stroke="url(#paint0_linear_37_45)" stroke-miterlimit="10"/>
<path d="M-143.168 717.628C-102.666 738.642 -62.0459 706.224 -28.5064 661.381C-19.7985 649.784 -11.5773 637.358 -3.92643 624.794C17.4489 589.644 37.5491 552.256 57.1124 514.04C96.5411 437.056 133.839 356.73 175.549 282.425C211.639 218.115 252.074 157.533 297.292 110.895C330.227 76.9036 365.797 50.3402 403.967 35.2085C479.351 5.27632 557.89 22.3686 631.915 64.9749C664.179 83.5307 695.504 106.863 725.57 132.267C768.489 168.55 810.065 209.141 852.413 246.97C905.029 293.994 957.88 336.38 1012.95 367.941C1015.87 369.626 1018.8 371.255 1021.74 372.884C1124.54 429.324 1242.92 442.661 1336.92 353.113" stroke="url(#paint1_linear_37_45)" stroke-miterlimit="10"/>
<path d="M-145.031 721.218C-104.781 743.998 -63.5902 714.812 -29.195 672.454C-20.2523 661.492 -11.7458 649.646 -3.80971 637.634C18.3374 603.947 39.2262 567.581 59.4942 530.221C100.366 454.921 138.905 375.562 181.572 301.809C218.501 237.996 259.506 177.662 305.21 130.969C338.448 97.0057 374.37 70.3594 412.775 54.9516C488.796 24.4672 568.073 40.4273 642.266 84.6628C674.581 103.936 705.788 128.401 735.804 154.771C778.689 192.49 820.299 234.13 863.352 270.689C916.807 316.14 970.564 353.031 1025.66 378.793C1028.58 380.174 1031.52 381.499 1034.46 382.797C1137.19 428.441 1252.96 430.208 1343.32 334.143" stroke="url(#paint2_linear_37_45)" stroke-miterlimit="10"/>
<path d="M-146.893 724.807C-106.894 749.355 -65.1333 723.371 -29.8824 683.499C-20.688 673.172 -11.9131 661.933 -3.67499 650.419C19.2439 618.195 40.9045 582.851 61.9108 546.319C104.225 472.704 143.989 394.311 187.629 321.138C225.414 257.794 266.99 197.709 313.18 151.016C346.72 117.08 382.977 90.3232 421.634 74.6668C498.293 43.6302 578.308 58.4582 652.686 104.35C685.051 124.314 716.141 149.939 746.106 177.276C788.958 216.403 830.618 259.119 874.375 294.436C928.669 338.313 983.349 369.681 1038.47 389.7C1041.38 390.749 1044.32 391.798 1047.26 392.792C1149.91 427.64 1263.09 417.81 1349.82 315.284" stroke="url(#paint3_linear_37_45)" stroke-miterlimit="10"/>
<path d="M-148.772 728.425C-109.025 754.767 -66.7609 731.849 -30.604 694.599C-21.1747 684.88 -12.1145 674.276 -3.59117 663.287C20.1163 632.554 42.5487 598.203 64.2596 562.528C108.017 490.597 149.023 413.143 193.636 340.55C232.259 277.703 274.406 217.866 321.083 171.118C354.924 137.21 391.517 110.343 430.443 94.4653C507.756 62.8764 588.509 76.5723 663.055 124.121C695.487 144.776 726.442 171.532 756.358 199.863C799.159 240.426 840.869 284.164 885.331 318.238C940.464 360.541 996.05 386.414 1051.2 400.662C1054.14 401.408 1057.06 402.153 1059.99 402.816C1162.57 426.867 1273.14 405.439 1356.23 296.424" stroke="url(#paint4_linear_37_45)" stroke-miterlimit="10"/>
<path d="M-150.635 732.015C-111.139 760.124 -68.3213 740.381 -31.2919 705.672C-21.611 696.587 -12.2823 686.564 -3.457 676.099C21.0223 646.829 44.2433 613.501 66.6589 578.654C111.859 508.407 154.107 431.92 199.676 359.906C239.138 297.557 281.855 237.969 329.035 191.193C363.162 157.312 400.108 130.362 439.285 114.209C517.236 82.0673 598.727 94.6311 673.44 143.809C705.923 165.181 736.761 193.07 766.626 222.367C809.393 264.339 851.137 309.154 896.304 341.985C952.259 382.714 1008.77 403.092 1063.95 411.569C1066.89 412.011 1069.81 412.425 1072.74 412.812C1175.26 426.094 1283.22 393.041 1362.67 277.565" stroke="url(#paint5_linear_37_45)" stroke-miterlimit="10"/>
<path d="M-152.497 735.604C-113.253 765.481 -69.865 748.941 -31.9799 716.717C-22.0473 708.267 -12.4502 698.879 -3.32288 688.911C21.9618 661.216 45.921 628.826 69.058 594.779C115.701 526.217 159.19 450.696 205.716 379.235C246.017 317.355 289.305 258.015 336.971 211.212C371.4 177.386 408.698 150.298 448.127 133.924C526.715 101.258 608.945 112.662 683.843 163.497C716.392 185.56 747.096 214.608 776.911 244.844C819.645 288.251 861.423 334.116 907.294 365.677C964.088 404.832 1021.52 419.715 1076.72 422.393C1079.66 422.531 1082.58 422.642 1085.51 422.725C1187.96 425.21 1293.31 380.56 1369.13 258.595" stroke="url(#paint6_linear_37_45)" stroke-miterlimit="10"/>
<path d="M-154.359 739.194C-115.367 770.865 -71.4249 757.501 -32.6674 727.79C-22.483 719.975 -12.6175 711.194 -3.20494 701.723C22.8515 675.519 47.5992 644.123 71.441 610.933C119.527 544.055 164.258 469.473 211.74 398.619C252.88 337.236 296.738 278.145 344.891 231.314C379.622 197.516 417.255 170.317 456.936 153.694C536.162 120.476 619.147 130.748 694.212 183.212C726.812 205.993 757.398 236.174 787.163 267.376C829.863 312.219 871.674 359.133 918.25 389.424C975.883 427.005 1034.22 436.393 1089.47 433.3C1092.41 433.135 1095.33 432.941 1098.26 432.693C1200.64 424.382 1303.39 368.135 1375.57 239.68" stroke="url(#paint7_linear_37_45)" stroke-miterlimit="10"/>
<path d="M-156.222 742.811C-117.482 776.25 -72.9691 766.088 -33.3727 738.862C-22.9367 731.683 -12.8027 723.51 -3.08814 714.563C23.7401 689.822 49.2596 659.448 73.8228 627.086C123.352 561.865 169.324 488.277 217.779 417.975C259.758 357.089 304.187 298.219 352.843 251.36C387.876 217.59 425.845 190.281 465.777 173.41C545.641 139.64 629.364 148.779 704.597 202.9C737.264 226.371 767.716 257.711 797.431 289.88C840.081 336.131 881.942 384.122 929.223 413.171C987.695 449.178 1046.94 453.071 1102.22 444.207C1105.16 443.738 1108.08 443.241 1111.01 442.689C1213.31 423.581 1313.46 355.736 1382 220.821" stroke="url(#paint8_linear_37_45)" stroke-miterlimit="10"/>
<path d="M-158.084 746.401C-119.595 781.607 -74.5122 774.676 -34.0601 749.935C-23.3724 743.391 -12.97 735.797 -2.97019 727.375C24.6298 704.126 50.938 674.746 76.2058 643.24C127.178 579.703 174.392 507.082 223.803 437.36C266.638 376.943 311.62 318.349 360.763 271.463C396.098 237.72 434.402 210.328 474.603 193.208C555.104 158.886 639.565 166.893 714.983 222.643C747.701 246.804 778.035 279.305 807.699 312.44C850.316 360.127 892.211 409.139 940.213 436.945C999.524 471.406 1059.69 469.777 1114.99 455.114C1117.93 454.341 1120.86 453.513 1123.78 452.657C1226.01 422.78 1323.56 343.311 1388.46 201.906" stroke="url(#paint9_linear_37_45)" stroke-miterlimit="10"/>
<path d="M-159.947 749.99C-121.709 786.991 -76.0559 783.236 -34.7481 761.008C-23.8088 755.126 -13.1379 748.113 -2.83609 740.215C25.5357 718.429 52.6157 690.071 78.605 659.393C131.02 597.541 179.475 525.858 229.843 456.716C273.517 396.797 319.069 338.451 368.699 291.509C404.319 257.794 442.993 230.292 483.428 212.924C564.584 178.049 649.783 184.924 725.369 242.331C758.153 267.21 788.354 300.815 817.967 334.944C860.55 384.04 902.496 434.129 951.186 460.665C1011.34 493.551 1072.41 486.427 1127.74 465.994C1130.68 464.917 1133.61 463.785 1136.53 462.625C1238.7 421.952 1333.63 330.913 1394.9 183.019" stroke="url(#paint10_linear_37_45)" stroke-miterlimit="10"/>
<path d="M-161.809 753.58C-123.823 792.348 -77.5995 791.824 -35.4361 772.053C-24.2451 766.807 -13.3225 760.345 -2.70193 753C26.4081 732.594 54.3102 705.341 81.021 675.519C134.879 615.351 184.576 544.635 235.9 476.073C280.412 416.65 326.552 358.525 376.669 311.584C412.591 277.896 451.6 250.284 492.287 232.695C574.08 197.268 660.018 203.011 735.771 262.074C768.606 287.644 798.689 322.408 828.269 357.504C870.818 408.035 912.797 459.174 962.192 484.467C1023.18 515.78 1085.18 503.161 1140.53 476.956C1143.46 475.576 1146.4 474.14 1149.32 472.649C1251.41 421.179 1343.73 318.542 1401.38 164.16" stroke="url(#paint11_linear_37_45)" stroke-miterlimit="10"/>
<path d="M-163.688 757.17C-125.954 797.705 -79.16 800.439 -36.1408 783.125C-24.7149 778.514 -13.5071 772.66 -2.60133 765.84C27.2973 746.925 55.9712 720.693 83.3867 691.672C138.687 633.189 189.626 563.439 241.923 495.429C287.275 436.476 333.985 378.627 384.588 331.631C420.812 297.971 460.157 270.275 501.112 252.41C583.543 216.43 670.219 221.042 746.157 281.734C779.059 308.022 809.008 343.918 838.537 379.953C881.036 431.892 923.065 484.108 973.165 508.131C1034.99 537.87 1097.89 519.728 1153.28 487.78C1156.21 486.096 1159.15 484.356 1162.07 482.561C1264.08 420.295 1353.81 306.061 1407.8 145.217" stroke="url(#paint12_linear_37_45)" stroke-miterlimit="10"/>
<path d="M-165.55 760.787C-128.068 803.117 -80.7031 809.054 -36.845 794.226C-25.1674 790.277 -13.6912 785.003 -2.48338 778.68C28.1871 761.229 57.6327 736.018 85.7697 707.853C142.513 651.054 194.693 582.243 247.947 514.841C294.137 456.385 341.418 398.757 392.524 351.76C429.05 318.128 468.731 290.322 509.938 272.208C593.006 235.677 680.421 239.156 756.543 301.505C789.495 328.483 819.327 365.539 848.806 402.54C891.271 455.915 933.334 509.153 984.138 531.961C1046.8 560.126 1110.61 536.489 1166.03 498.743C1168.97 496.727 1171.9 494.683 1174.82 492.613C1276.77 419.577 1363.88 293.718 1414.25 126.386" stroke="url(#paint13_linear_37_45)" stroke-miterlimit="10"/>
<path d="M-167.413 764.377C-130.183 808.474 -82.2306 817.78 -37.5336 805.271C-25.5876 801.985 -13.8597 797.291 -2.36665 791.492C29.0756 775.532 59.3098 751.316 88.1514 723.979C146.338 668.837 199.743 601.02 253.97 534.17C300.999 476.211 348.85 418.832 400.443 371.78C437.254 338.175 477.304 310.259 518.746 291.924C602.452 254.867 690.621 257.187 766.894 321.166C799.897 348.833 829.611 387.049 859.04 425.017C901.472 479.8 943.568 534.115 995.094 555.652C1058.6 582.243 1123.33 553.112 1178.76 509.595C1181.7 507.275 1184.64 504.928 1187.56 502.526C1289.43 418.694 1373.94 281.238 1420.67 107.416" stroke="url(#paint14_linear_37_45)" stroke-miterlimit="10"/>
<path d="M-169.275 767.966C-132.296 813.858 -83.7737 826.339 -38.221 816.344C-26.0401 813.72 -14.027 809.578 -2.23194 804.304C29.9821 789.808 60.9881 766.613 90.5512 740.105C150.181 686.647 204.827 619.797 260.01 553.526C307.895 496.037 356.3 438.934 408.379 391.854C445.493 358.277 485.878 330.278 527.588 311.667C611.949 274.058 700.839 275.246 777.297 340.881C810.367 369.267 839.947 408.615 869.325 447.549C911.724 503.768 953.854 559.132 1006.08 579.399C1070.43 604.416 1136.06 569.79 1191.53 520.501C1194.49 517.878 1197.41 515.227 1200.32 512.521C1302.13 417.893 1384.03 268.839 1427.13 88.5563" stroke="url(#paint15_linear_37_45)" stroke-miterlimit="10"/>
<path d="M-171.138 771.556C-134.41 819.215 -85.3341 834.927 -38.909 827.389C-26.4764 825.4 -14.1948 821.866 -2.11454 817.117C30.8713 804.083 62.6659 781.91 92.9336 756.258C154.023 704.484 209.894 638.573 266.05 572.882C314.774 515.89 363.75 459.008 416.332 411.901C453.748 378.379 494.468 350.241 536.43 331.41C621.428 293.249 711.057 293.304 787.7 360.596C820.82 389.672 850.282 430.153 879.61 470.081C921.958 527.736 964.138 584.148 1017.07 603.174C1082.26 626.617 1148.8 586.496 1204.3 531.436C1207.25 528.509 1210.17 525.554 1213.09 522.517C1314.84 417.092 1394.13 256.441 1433.57 69.6691" stroke="url(#paint16_linear_37_45)" stroke-miterlimit="10"/>
<path d="M-173 775.173C-136.524 824.599 -86.8778 843.514 -39.6138 838.489C7.65023 833.463 52.968 806.347 95.316 772.439C212.109 678.887 310.043 533.479 424.251 432.002C538.46 330.526 683.39 277.399 798.068 380.311C879.208 453.126 937.293 596.85 1028.03 626.92C1094.05 648.79 1161.52 603.173 1217.04 542.315C1323.07 426.121 1403.16 249.538 1440 50.7542" stroke="url(#paint17_linear_37_45)" stroke-miterlimit="10"/>
<defs>
<linearGradient id="paint0_linear_37_45" x1="-35.521" y1="1022.18" x2="1385.52" y2="531.169" gradientUnits="userSpaceOnUse">
<stop stop-color="white"/>
<stop offset="1" stop-color="#E8E8E8"/>
</linearGradient>
<linearGradient id="paint1_linear_37_45" x1="-35.951" y1="1029.98" x2="1399.44" y2="534.007" gradientUnits="userSpaceOnUse">
<stop stop-color="white"/>
<stop offset="1" stop-color="#E8E8E8"/>
</linearGradient>
<linearGradient id="paint2_linear_37_45" x1="-36.2799" y1="1038.07" x2="1413.53" y2="537.115" gradientUnits="userSpaceOnUse">
<stop stop-color="white"/>
<stop offset="1" stop-color="#E8E8E8"/>
</linearGradient>
<linearGradient id="paint3_linear_37_45" x1="-36.4322" y1="1046.67" x2="1427.8" y2="540.728" gradientUnits="userSpaceOnUse">
<stop stop-color="white"/>
<stop offset="1" stop-color="#E8E8E8"/>
</linearGradient>
<linearGradient id="paint4_linear_37_45" x1="-36.3854" y1="1055.84" x2="1442.27" y2="544.919" gradientUnits="userSpaceOnUse">
<stop stop-color="white"/>
<stop offset="1" stop-color="#E8E8E8"/>
</linearGradient>
<linearGradient id="paint5_linear_37_45" x1="-36.1108" y1="1065.67" x2="1456.96" y2="549.767" gradientUnits="userSpaceOnUse">
<stop stop-color="white"/>
<stop offset="1" stop-color="#E8E8E8"/>
</linearGradient>
<linearGradient id="paint6_linear_37_45" x1="-35.5772" y1="1076.25" x2="1471.91" y2="555.363" gradientUnits="userSpaceOnUse">
<stop stop-color="white"/>
<stop offset="1" stop-color="#E8E8E8"/>
</linearGradient>
<linearGradient id="paint7_linear_37_45" x1="-34.7499" y1="1087.67" x2="1487.16" y2="561.805" gradientUnits="userSpaceOnUse">
<stop stop-color="white"/>
<stop offset="1" stop-color="#E8E8E8"/>
</linearGradient>
<linearGradient id="paint8_linear_37_45" x1="-33.596" y1="1100.04" x2="1502.73" y2="569.195" gradientUnits="userSpaceOnUse">
<stop stop-color="white"/>
<stop offset="1" stop-color="#E8E8E8"/>
</linearGradient>
<linearGradient id="paint9_linear_37_45" x1="-33.3628" y1="1109.74" x2="1517.37" y2="573.916" gradientUnits="userSpaceOnUse">
<stop stop-color="white"/>
<stop offset="1" stop-color="#E8E8E8"/>
</linearGradient>
<linearGradient id="paint10_linear_37_45" x1="-34.801" y1="1114.61" x2="1530.35" y2="573.8" gradientUnits="userSpaceOnUse">
<stop stop-color="white"/>
<stop offset="1" stop-color="#E8E8E8"/>
</linearGradient>
<linearGradient id="paint11_linear_37_45" x1="-35.8244" y1="1120.67" x2="1543.73" y2="574.885" gradientUnits="userSpaceOnUse">
<stop stop-color="white"/>
<stop offset="1" stop-color="#E8E8E8"/>
</linearGradient>
<linearGradient id="paint12_linear_37_45" x1="-36.4246" y1="1127.96" x2="1557.54" y2="577.191" gradientUnits="userSpaceOnUse">
<stop stop-color="white"/>
<stop offset="1" stop-color="#E8E8E8"/>
</linearGradient>
<linearGradient id="paint13_linear_37_45" x1="-36.6088" y1="1136.44" x2="1571.76" y2="580.7" gradientUnits="userSpaceOnUse">
<stop stop-color="white"/>
<stop offset="1" stop-color="#E8E8E8"/>
</linearGradient>
<linearGradient id="paint14_linear_37_45" x1="-36.401" y1="1146.07" x2="1586.37" y2="585.346" gradientUnits="userSpaceOnUse">
<stop stop-color="white"/>
<stop offset="1" stop-color="#E8E8E8"/>
</linearGradient>
<linearGradient id="paint15_linear_37_45" x1="-35.8332" y1="1156.72" x2="1601.34" y2="591.029" gradientUnits="userSpaceOnUse">
<stop stop-color="white"/>
<stop offset="1" stop-color="#E8E8E8"/>
</linearGradient>
<linearGradient id="paint16_linear_37_45" x1="-34.9545" y1="1168.28" x2="1616.62" y2="597.613" gradientUnits="userSpaceOnUse">
<stop stop-color="white"/>
<stop offset="1" stop-color="#E8E8E8"/>
</linearGradient>
<linearGradient id="paint17_linear_37_45" x1="-33.8461" y1="1180.5" x2="1632.12" y2="604.86" gradientUnits="userSpaceOnUse">
<stop stop-color="white"/>
<stop offset="1" stop-color="#E8E8E8"/>
</linearGradient>
</defs>
</svg>
