<svg width="25" height="24" viewBox="0 0 25 24" fill="none" xmlns="http://www.w3.org/2000/svg">
<path d="M15.6663 14.1834V10.5502C15.6663 10.4251 15.5926 10.3117 15.4782 10.2608L12.6282 8.99415C12.5462 8.95768 12.4527 8.95768 12.371 8.99415L9.52103 10.2608C9.4068 10.3117 9.33301 10.4251 9.33301 10.5502V14.1834C9.33301 14.9041 11.2279 15.9649 12.3575 16.5331C12.4021 16.5554 12.4509 16.5669 12.4997 16.5669C12.5484 16.5669 12.5972 16.5554 12.6419 16.5334C13.7714 15.9649 15.6663 14.9044 15.6663 14.1834ZM9.96634 14.1834V10.756L12.4997 9.63002L15.033 10.756V14.1725C14.9462 14.4511 13.8072 15.2236 12.4997 15.8948C11.1837 15.2192 10.0389 14.4421 9.96634 14.1834Z" fill="#1C1C1C"/>
<path d="M12.1226 13.6215L11.0852 12.9659L10.7471 13.5012L12.0137 14.3013C12.0655 14.3345 12.1241 14.3504 12.1824 14.3504C12.271 14.3504 12.3588 14.313 12.4209 14.2424L14.6376 11.709L14.161 11.292L12.1226 13.6215Z" fill="#1C1C1C"/>
<path d="M21.6824 2H3.31569C3.14096 2 2.99902 2.14194 2.99902 2.31667V18.15C2.99902 18.3248 3.14096 18.4667 3.31569 18.4667H7.37446L6.83048 19.5959C6.77916 19.702 6.79118 19.8281 6.86186 19.9228C6.93283 20.0175 7.05002 20.065 7.16623 20.0459L8.93899 19.7596L9.77434 20.8733C9.83456 20.9535 9.92857 21 10.0277 21C10.041 21 10.0542 20.9994 10.0678 20.9975C10.1809 20.9832 10.2775 20.9088 10.3206 20.8034L11.4496 18.0455C11.7891 18.113 12.1397 18.15 12.4991 18.15C12.8584 18.15 13.209 18.113 13.5489 18.0455L14.6779 20.8034C14.721 20.9088 14.8175 20.9829 14.9306 20.9975C14.9441 20.9994 14.9573 21 14.9706 21C15.0695 21 15.1637 20.9538 15.224 20.8733L16.0593 19.7596L17.8321 20.0459C17.9498 20.0653 18.0658 20.0174 18.1364 19.9228C18.2071 19.8281 18.2191 19.7021 18.1678 19.5959L17.6237 18.4667H21.6825C21.8572 18.4667 21.9991 18.3248 21.9991 18.15V2.31667C21.9991 2.14194 21.8572 2 21.6825 2H21.6824ZM9.94579 20.0468L9.33084 19.2265C9.27062 19.1461 9.17633 19.0999 9.07751 19.0999C9.06069 19.0999 9.04401 19.1011 9.02718 19.104L7.66454 19.3241L8.89896 16.7622C8.91423 16.7758 8.93091 16.7872 8.94646 16.8005C9.05348 16.8949 9.16459 16.9844 9.27896 17.0702C9.31063 17.094 9.34173 17.118 9.37368 17.1412C9.49907 17.2311 9.62857 17.3144 9.76161 17.3936C9.7838 17.4066 9.805 17.4208 9.8272 17.4334C10.1439 17.6155 10.4792 17.7672 10.8321 17.8824L9.94579 20.0468ZM11.3305 17.3651C11.0179 17.286 10.7168 17.1746 10.4296 17.0354C10.4081 17.025 10.3859 17.0148 10.3644 17.0041C10.2811 16.9622 10.1994 16.9175 10.119 16.8708C10.0879 16.8527 10.0575 16.8334 10.0268 16.8148C9.78519 16.6672 9.55715 16.4978 9.34442 16.3081C9.30922 16.2767 9.27416 16.2458 9.24023 16.2134C9.18001 16.1564 9.1212 16.0984 9.0638 16.0382C9.04033 16.0139 9.01814 15.9882 8.99538 15.9632C8.91494 15.8751 8.83705 15.7849 8.76396 15.6917C8.74275 15.6644 8.72254 15.6363 8.7019 15.6087C8.63348 15.5176 8.56731 15.4251 8.50625 15.3301C8.48377 15.2953 8.46285 15.2589 8.44136 15.2234C8.38622 15.1328 8.33236 15.041 8.28359 14.9473C8.26083 14.9033 8.24047 14.8579 8.21898 14.8133C8.17629 14.7243 8.13416 14.6353 8.09712 14.5438C8.07563 14.4907 8.05725 14.4355 8.0376 14.3814C8.00622 14.2956 7.97484 14.2098 7.94868 14.122C7.92932 14.0571 7.91447 13.9905 7.89765 13.9246C7.87743 13.8449 7.85581 13.7653 7.83969 13.6843C7.82329 13.6 7.8124 13.5139 7.80039 13.4281C7.7912 13.363 7.7789 13.2979 7.77254 13.2321C7.75755 13.0788 7.74907 12.9236 7.74907 12.7665C7.74907 10.1474 9.87993 8.01653 12.4991 8.01653C15.1182 8.01653 17.2491 10.1474 17.2491 12.7665C17.2491 12.9236 17.2406 13.0788 17.2256 13.2321C17.219 13.2979 17.207 13.3625 17.1978 13.4281C17.1857 13.5139 17.1753 13.6 17.1585 13.6843C17.1423 13.7653 17.1207 13.8449 17.1005 13.9246C17.0841 13.9905 17.0688 14.0569 17.0495 14.122C17.0232 14.2096 16.9918 14.2956 16.9605 14.3814C16.9409 14.4355 16.9225 14.4907 16.901 14.5438C16.864 14.635 16.8219 14.7243 16.7792 14.8133C16.7577 14.8579 16.7373 14.9032 16.7146 14.9473C16.6658 15.041 16.6122 15.1329 16.5568 15.2234C16.5353 15.2589 16.5144 15.2952 16.4919 15.3301C16.4304 15.4251 16.3647 15.5178 16.2963 15.6087C16.2753 15.6363 16.2554 15.6644 16.2342 15.6917C16.1611 15.7849 16.0832 15.8748 16.0028 15.9632C15.98 15.9882 15.9578 16.0138 15.9343 16.0382C15.8771 16.0985 15.8181 16.1567 15.7579 16.2134C15.7237 16.2456 15.6885 16.277 15.6537 16.3081C15.441 16.4978 15.2129 16.6672 14.9714 16.8148C14.9407 16.8334 14.9103 16.8528 14.8792 16.8708C14.7987 16.9177 14.7168 16.9619 14.6338 17.0041C14.6123 17.0148 14.5904 17.025 14.5686 17.0354C14.2818 17.1744 13.9805 17.286 13.6676 17.3651C13.293 17.4605 12.9028 17.5165 12.4991 17.5165C12.0953 17.5165 11.7051 17.4605 11.3305 17.3651ZM15.9709 19.104C15.8547 19.0856 15.7377 19.1325 15.6672 19.2265L15.0523 20.0468L14.1662 17.8827C14.5189 17.7675 14.8544 17.6158 15.171 17.4337C15.1932 17.421 15.2144 17.4068 15.2366 17.3938C15.3697 17.3149 15.4991 17.2314 15.6246 17.1415C15.6565 17.1183 15.6876 17.0943 15.7193 17.0705C15.8336 16.9847 15.9448 16.8951 16.0518 16.8008C16.067 16.7872 16.084 16.776 16.0993 16.7625L17.3337 19.3244L15.9709 19.104ZM21.3658 17.8332H17.3186L16.5706 16.281C16.5763 16.2746 16.5808 16.2677 16.5864 16.261C16.6625 16.1724 16.7333 16.0799 16.8037 15.9865C16.8344 15.9456 16.8661 15.9051 16.8959 15.8636C16.9567 15.7775 17.0134 15.6892 17.0691 15.5996C17.1026 15.5457 17.1362 15.4923 17.1676 15.4374C17.2157 15.3539 17.2608 15.2683 17.3045 15.1818C17.3371 15.1172 17.3684 15.0526 17.3985 14.9867C17.4358 14.9045 17.4713 14.8215 17.5045 14.7372C17.5339 14.6631 17.5609 14.5881 17.5868 14.5124C17.6143 14.4323 17.6412 14.3523 17.665 14.2706C17.69 14.1853 17.7109 14.0989 17.7314 14.0124C17.7495 13.9368 17.7684 13.8617 17.7833 13.7847C17.8032 13.6817 17.8172 13.5776 17.8311 13.4734C17.8393 13.4098 17.8507 13.3473 17.8567 13.2831C17.8728 13.112 17.8825 12.9397 17.8825 12.7665C17.8825 9.79808 15.4676 7.3832 12.4992 7.3832C9.53073 7.3832 7.11584 9.79808 7.11584 12.7665C7.11584 12.9397 7.1256 13.112 7.14214 13.2827C7.14822 13.347 7.15952 13.4094 7.16772 13.473C7.18172 13.5772 7.19557 13.6813 7.21551 13.7843C7.23035 13.8612 7.24944 13.9362 7.26739 14.012C7.28803 14.0985 7.30881 14.1849 7.33383 14.2702C7.35758 14.3519 7.38444 14.432 7.41201 14.512C7.43802 14.5874 7.46488 14.6625 7.49429 14.7368C7.52751 14.8211 7.56299 14.9043 7.60031 14.9863C7.63042 15.0519 7.66181 15.1168 7.69433 15.1814C7.73801 15.2679 7.78296 15.3533 7.83117 15.437C7.86255 15.4919 7.89606 15.5453 7.9297 15.5992C7.98541 15.6888 8.04209 15.7774 8.10288 15.8632C8.13229 15.9051 8.16396 15.9452 8.19506 15.9861C8.26504 16.0795 8.33628 16.172 8.41234 16.2606C8.418 16.267 8.42252 16.2742 8.42817 16.2806L7.67976 17.8332H3.63257V2.63319H21.3659L21.3658 17.8332Z" fill="#1C1C1C"/>
<path d="M9.64844 5.7998H15.3484V6.43314H9.64844V5.7998Z" fill="#1C1C1C"/>
<path d="M6.48242 4.2168H18.5158V4.85013H6.48242V4.2168Z" fill="#1C1C1C"/>
</svg>
