<svg width="18" height="22" viewBox="0 0 18 22" fill="none" xmlns="http://www.w3.org/2000/svg">
<path d="M9.82354 18.4975H1.91552C1.28621 18.4975 0.793573 17.9775 0.793573 17.321V1.99746C0.793573 1.34069 1.31353 0.820936 1.91552 0.820936L10.2066 0.820745V3.06464C10.2066 3.83082 10.8907 3.8035 10.8907 3.8035H13.2987V14.8036C13.4629 14.7763 13.6545 14.7763 13.846 14.7763C13.9553 14.7763 14.0376 14.7763 14.147 14.8036L14.1468 3.8035V3.42042L10.617 0H1.28608C0.57468 0 0 0.574729 0 1.28608V18.0051C0 18.7165 0.574729 19.2912 1.28608 19.2912H9.85082C9.82353 19.127 9.82353 18.9629 9.82353 18.7987C9.79604 18.6892 9.82353 18.5798 9.82353 18.4977L9.82354 18.4975ZM10.8359 1.34064L12.7513 3.20126H11.2463C11.2463 3.20126 10.8359 3.20126 10.8359 2.70881L10.8359 1.34064Z" fill="#1C1C1C"/>
<path d="M2.32617 6.07422H11.8213V6.73099H2.32617V6.07422Z" fill="#1C1C1C"/>
<path d="M2.32617 8.64648H11.8213V9.27579H2.32617V8.64648Z" fill="#1C1C1C"/>
<path d="M2.32617 11.2188H11.8213V11.8755H2.32617V11.2188Z" fill="#1C1C1C"/>
<path d="M2.32617 13.791H11.8213V14.4203H2.32617V13.791Z" fill="#1C1C1C"/>
<path d="M2.32617 3.50195H7.71676V4.13126H2.32617V3.50195Z" fill="#1C1C1C"/>
<path d="M13.7095 15.1592C11.8214 15.1592 10.2891 16.6915 10.2891 18.5796C10.2891 20.4677 11.8214 22 13.7095 22C15.5976 22 17.1299 20.4677 17.1299 18.5796C17.1299 16.6915 15.5976 15.1592 13.7095 15.1592ZM13.6547 19.893L13.4358 20.194L11.876 19.0996L12.1222 18.7713L13.3535 19.647L15.2141 16.9927L15.5424 17.239L13.6547 19.893Z" fill="#1C1C1C"/>
</svg>
