<svg width="537" height="709" viewBox="0 0 537 709" fill="none" xmlns="http://www.w3.org/2000/svg">
<path d="M1269.03 313.879C1186.69 383.954 1084.65 362.901 997.889 306.217C911.131 249.533 833.854 160.617 750.195 92.7073C666.522 24.7979 570.693 -22.408 480.171 13.1769C404.394 42.963 341.31 127.477 289.887 222.005C238.449 316.534 195.883 423.125 143.498 516.28C113.342 569.89 70.9894 622.755 27.7448 602.354" stroke="url(#paint0_linear_37_2)" stroke-miterlimit="10"/>
<path d="M26.1602 605.405C60.3199 623.128 94.5788 595.787 122.866 557.966C130.21 548.185 137.144 537.705 143.597 527.109C161.625 497.463 178.577 465.93 195.077 433.699C228.331 368.77 259.788 301.024 294.967 238.354C325.405 184.115 359.508 133.02 397.644 93.6855C425.422 65.0173 455.422 42.6137 487.615 29.8516C551.194 4.60676 617.433 19.0224 679.866 54.9566C707.078 70.6066 733.497 90.2854 758.855 111.711C795.053 142.312 830.118 176.546 865.835 208.452C910.211 248.112 954.786 283.86 1001.23 310.479C1003.69 311.899 1006.17 313.273 1008.64 314.647C1095.34 362.249 1195.19 373.498 1274.46 297.973" stroke="url(#paint1_linear_37_2)" stroke-miterlimit="10"/>
<path d="M24.5889 608.433C58.5364 627.646 93.2764 603.03 122.285 567.305C129.828 558.059 137.002 548.069 143.695 537.938C162.374 509.526 179.992 478.855 197.086 447.346C231.557 383.838 264.061 316.906 300.046 254.703C331.192 200.883 365.776 149.997 404.323 110.616C432.355 81.9713 462.652 59.4978 495.043 46.5028C559.16 20.7922 626.022 34.253 688.596 71.5613C715.851 87.8167 742.171 108.45 767.487 130.691C803.656 162.503 838.75 197.622 875.06 228.456C920.144 266.789 965.483 297.903 1011.95 319.631C1014.42 320.796 1016.89 321.913 1019.37 323.008C1106.01 361.504 1203.65 362.994 1279.87 281.973" stroke="url(#paint2_linear_37_2)" stroke-miterlimit="10"/>
<path d="M23.0186 611.46C56.7538 632.163 91.9749 610.249 121.706 576.62C129.46 567.91 136.861 558.432 143.809 548.721C163.139 521.543 181.407 491.733 199.124 460.923C234.812 398.835 268.349 332.719 305.155 271.004C337.023 217.58 372.088 166.905 411.045 127.524C439.332 98.9019 469.912 76.3353 502.515 63.1307C567.17 36.9544 634.654 49.4603 697.384 88.1659C724.681 105.004 750.902 126.615 776.175 149.671C812.316 182.671 847.453 218.698 884.358 248.484C930.149 285.49 976.266 311.946 1022.75 328.83C1025.21 329.715 1027.69 330.6 1030.17 331.438C1116.74 360.828 1212.2 352.538 1285.35 266.067" stroke="url(#paint3_linear_37_2)" stroke-miterlimit="10"/>
<path d="M21.4336 614.511C54.9566 636.728 90.6022 617.399 121.097 585.982C129.05 577.785 136.691 568.842 143.88 559.573C163.875 533.653 182.794 504.682 201.105 474.593C238.01 413.927 272.594 348.602 310.221 287.376C342.796 234.372 378.343 183.905 417.71 144.478C446.252 115.879 477.114 93.2197 509.944 79.8288C575.151 53.1867 643.258 64.7378 706.129 104.841C733.483 122.261 759.591 144.827 784.821 168.721C820.92 202.932 856.098 239.821 893.598 268.559C940.097 304.237 986.978 326.059 1033.49 338.076C1035.97 338.704 1038.43 339.333 1040.91 339.892C1127.42 360.177 1220.68 342.105 1290.75 250.161" stroke="url(#paint4_linear_37_2)" stroke-miterlimit="10"/>
<path d="M19.8628 617.538C53.1735 641.246 89.2861 624.595 120.517 595.321C128.682 587.659 136.549 579.205 143.993 570.379C164.639 545.693 184.223 517.584 203.129 488.194C241.251 428.948 276.882 364.438 315.315 303.702C348.598 251.116 384.625 200.859 424.417 161.409C453.2 132.834 484.36 110.104 517.401 96.4801C583.146 69.3722 651.876 79.9685 714.889 121.445C742.284 139.471 768.293 162.992 793.482 187.701C829.552 223.1 864.759 260.897 902.852 288.587C950.045 322.938 997.704 340.125 1044.25 347.275C1046.72 347.647 1049.18 347.997 1051.66 348.323C1138.12 359.524 1229.18 331.648 1296.19 234.255" stroke="url(#paint5_linear_37_2)" stroke-miterlimit="10"/>
<path d="M18.292 620.566C51.3905 645.764 87.9842 631.814 119.936 604.637C128.314 597.51 136.408 589.592 144.106 581.185C165.431 557.827 185.638 530.509 205.152 501.794C244.491 443.969 281.17 380.274 320.409 320.004C354.399 267.814 390.908 217.767 431.11 178.293C460.148 149.764 491.605 126.918 524.859 113.108C591.141 85.5577 660.493 95.1759 723.662 138.05C751.114 156.658 777.01 181.157 802.156 206.658C838.198 243.268 873.433 281.95 912.121 308.569C960.021 341.592 1008.46 354.145 1055.01 356.404C1057.49 356.52 1059.95 356.613 1062.43 356.683C1148.83 358.779 1237.69 321.122 1301.63 218.256" stroke="url(#paint6_linear_37_2)" stroke-miterlimit="10"/>
<path d="M16.7217 623.593C49.6079 650.305 86.6686 639.034 119.357 613.975C127.946 607.385 136.267 599.979 144.205 591.991C166.181 569.89 187.054 543.411 207.162 515.418C247.718 459.013 285.444 396.111 325.49 336.352C360.188 284.582 397.177 234.744 437.79 195.247C467.082 166.742 498.822 143.802 532.288 129.783C599.108 101.767 669.097 110.43 732.408 154.678C759.902 173.891 785.699 199.346 810.803 225.662C846.816 263.482 882.08 303.05 921.362 328.597C969.97 360.293 1019.17 368.211 1065.77 365.603C1068.25 365.463 1070.71 365.3 1073.18 365.09C1159.53 358.08 1246.19 310.642 1307.07 202.303" stroke="url(#paint7_linear_37_2)" stroke-miterlimit="10"/>
<path d="M15.1504 626.644C47.8244 654.847 85.3662 646.276 118.762 623.314C127.564 617.259 136.111 610.365 144.304 602.82C166.931 581.953 188.454 556.336 209.171 529.042C250.944 474.034 289.716 411.97 330.584 352.677C365.989 301.326 403.46 251.675 444.497 212.154C474.044 183.672 506.067 160.64 539.745 146.411C607.103 117.929 677.715 125.637 741.166 171.283C768.718 191.078 794.401 217.511 819.462 244.642C855.433 283.65 890.739 324.126 930.616 348.625C979.931 378.994 1029.9 382.277 1076.52 374.802C1079 374.406 1081.46 373.987 1083.94 373.521C1170.22 357.405 1254.68 300.185 1312.49 186.397" stroke="url(#paint8_linear_37_2)" stroke-miterlimit="10"/>
<path d="M13.5801 629.672C46.0418 659.365 84.0647 653.519 118.182 632.653C127.196 627.133 135.97 620.729 144.403 613.626C167.681 594.017 189.87 569.238 211.18 542.666C254.17 489.079 293.99 427.83 335.664 369.026C371.791 318.071 409.729 268.652 451.176 229.108C480.978 200.65 513.284 177.548 547.189 163.109C615.084 134.161 686.319 140.915 749.926 187.934C777.52 208.312 803.104 235.722 828.123 263.669C864.066 303.888 899.4 345.225 939.885 368.677C989.908 397.741 1040.65 396.367 1087.29 384.001C1089.77 383.349 1092.25 382.65 1094.71 381.928C1180.93 356.73 1263.2 289.705 1317.94 170.445" stroke="url(#paint9_linear_37_2)" stroke-miterlimit="10"/>
<path d="M12.0093 632.699C44.2587 663.906 82.7628 660.739 117.602 641.991C126.828 637.031 135.828 631.116 144.516 624.455C168.445 606.08 191.285 582.163 213.204 556.289C257.411 504.123 298.278 443.666 340.758 385.351C377.593 334.815 416.012 285.606 457.87 246.016C487.912 217.581 520.529 194.385 554.632 179.737C623.079 150.323 694.936 156.122 758.685 204.539C786.336 225.522 811.807 253.864 836.783 282.649C872.697 324.056 908.074 366.301 949.14 388.682C999.87 416.418 1051.38 410.41 1098.05 393.176C1100.52 392.268 1103 391.313 1105.46 390.335C1191.63 356.031 1271.69 279.249 1323.37 154.515" stroke="url(#paint10_linear_37_2)" stroke-miterlimit="10"/>
<path d="M10.4385 635.727C42.4757 668.424 81.4608 667.982 117.022 651.307C126.46 646.882 135.672 641.433 144.63 635.238C169.181 618.028 192.714 595.042 215.242 569.89C260.665 519.144 302.58 459.502 345.867 401.677C383.408 351.56 422.323 302.537 464.591 262.947C494.888 234.535 527.788 211.246 562.104 196.411C631.088 166.532 703.568 171.376 767.459 221.19C795.151 242.756 820.524 272.076 845.471 301.676C881.358 344.294 916.763 387.424 958.422 408.757C1009.86 435.166 1062.15 424.523 1108.83 402.422C1111.31 401.258 1113.78 400.047 1116.24 398.789C1202.35 355.379 1280.21 268.816 1328.83 138.609" stroke="url(#paint11_linear_37_2)" stroke-miterlimit="10"/>
<path d="M8.85352 638.754C40.6784 672.942 80.1447 675.248 116.427 660.646C126.064 656.756 135.516 651.819 144.714 646.067C169.931 630.114 194.115 607.99 217.237 583.514C263.877 534.189 306.839 475.362 350.947 418.002C389.196 368.281 428.592 319.491 471.27 279.854C501.821 251.465 535.005 228.107 569.547 213.039C639.069 182.694 712.172 186.584 776.218 237.772C803.967 259.943 829.226 290.218 854.132 320.609C889.975 364.415 925.423 408.454 967.677 428.715C1019.82 453.797 1072.87 438.496 1119.58 411.551C1122.06 410.13 1124.54 408.663 1127 407.15C1213.04 354.634 1288.71 258.289 1334.25 122.633" stroke="url(#paint12_linear_37_2)" stroke-miterlimit="10"/>
<path d="M7.2832 641.805C38.8959 677.506 78.8433 682.513 115.833 670.008C125.682 666.677 135.361 662.229 144.814 656.896C170.681 642.178 195.516 620.915 219.247 597.161C267.104 549.256 311.113 491.221 356.027 434.374C394.984 385.072 434.861 336.469 477.964 296.832C508.77 268.466 542.236 245.015 576.99 229.737C647.051 198.927 720.776 201.861 784.977 254.446C812.769 277.199 837.929 308.453 862.792 339.659C898.608 384.676 934.083 429.576 976.932 448.813C1029.78 472.567 1083.6 452.632 1130.34 420.797C1132.82 419.097 1135.29 417.373 1137.75 415.627C1223.73 354.028 1297.2 247.879 1339.69 106.75" stroke="url(#paint13_linear_37_2)" stroke-miterlimit="10"/>
<path d="M5.71191 644.833C37.1123 682.024 77.555 689.873 115.252 679.323C125.328 676.552 135.219 672.593 144.912 667.702C171.431 654.241 196.93 633.817 221.255 610.761C270.33 564.254 315.372 507.057 361.107 450.676C400.771 401.793 441.129 353.4 484.642 313.716C515.689 285.374 549.467 261.829 584.419 246.365C655.017 215.112 729.379 217.068 793.708 271.028C821.542 294.363 846.603 326.594 871.424 358.616C907.211 404.821 942.715 450.629 986.172 468.794C1039.73 491.221 1094.33 466.652 1141.08 429.949C1143.56 427.993 1146.03 426.013 1148.49 423.987C1234.42 353.283 1305.69 237.353 1345.1 90.7511" stroke="url(#paint14_linear_37_2)" stroke-miterlimit="10"/>
<path d="M4.1416 647.86C35.3297 686.566 76.2536 697.092 114.673 688.662C124.946 686.449 135.078 682.956 145.026 678.508C172.195 666.281 198.346 646.719 223.279 624.362C273.571 579.275 319.66 522.894 366.201 467.001C406.588 418.514 447.412 370.354 491.336 330.647C522.637 302.328 556.698 278.713 591.877 263.017C663.027 231.298 737.997 232.299 802.482 287.656C830.373 311.597 855.32 344.783 880.098 377.62C915.857 425.035 951.39 471.729 995.441 488.823C1049.71 509.922 1105.07 480.718 1151.85 439.148C1154.34 436.936 1156.8 434.7 1159.26 432.418C1245.13 352.608 1314.2 226.896 1350.55 74.8451" stroke="url(#paint15_linear_37_2)" stroke-miterlimit="10"/>
<path d="M2.5708 650.888C33.5467 691.084 74.9375 704.335 114.092 697.977C124.578 696.3 134.936 693.319 145.125 689.314C172.945 678.321 199.761 659.621 225.289 637.986C276.811 594.32 323.933 538.73 371.296 483.326C412.389 435.259 453.695 387.284 498.043 347.554C529.6 319.282 563.943 295.551 599.334 279.668C671.022 247.483 746.615 247.53 811.255 304.284C839.189 328.807 864.037 362.948 888.773 396.623C924.489 445.25 960.064 492.828 1004.71 508.874C1059.68 528.646 1115.81 494.808 1162.62 448.37C1165.11 445.902 1167.57 443.41 1170.03 440.848C1255.84 351.932 1322.72 216.439 1355.99 58.9155" stroke="url(#paint16_linear_37_2)" stroke-miterlimit="10"/>
<path d="M1 653.938C31.7636 695.625 73.6356 711.577 113.498 707.339C153.361 703.1 191.582 680.231 227.298 651.633C325.801 572.731 408.399 450.093 504.723 364.508C601.046 278.922 723.28 234.115 820 320.912C888.433 382.324 937.423 503.541 1013.95 528.902C1069.63 547.346 1126.53 508.874 1173.36 457.546C1262.79 359.547 1330.33 210.617 1361.41 42.9628" stroke="url(#paint17_linear_37_2)" stroke-miterlimit="10"/>
<defs>
<linearGradient id="paint0_linear_37_2" x1="116.95" y1="862.267" x2="1315.46" y2="448.145" gradientUnits="userSpaceOnUse">
<stop stop-color="white"/>
<stop offset="1" stop-color="#E8E8E8"/>
</linearGradient>
<linearGradient id="paint1_linear_37_2" x1="116.587" y1="868.842" x2="1327.2" y2="450.538" gradientUnits="userSpaceOnUse">
<stop stop-color="white"/>
<stop offset="1" stop-color="#E8E8E8"/>
</linearGradient>
<linearGradient id="paint2_linear_37_2" x1="116.31" y1="875.666" x2="1339.08" y2="453.16" gradientUnits="userSpaceOnUse">
<stop stop-color="white"/>
<stop offset="1" stop-color="#E8E8E8"/>
</linearGradient>
<linearGradient id="paint3_linear_37_2" x1="116.181" y1="882.916" x2="1351.12" y2="456.207" gradientUnits="userSpaceOnUse">
<stop stop-color="white"/>
<stop offset="1" stop-color="#E8E8E8"/>
</linearGradient>
<linearGradient id="paint4_linear_37_2" x1="116.221" y1="890.653" x2="1363.32" y2="459.742" gradientUnits="userSpaceOnUse">
<stop stop-color="white"/>
<stop offset="1" stop-color="#E8E8E8"/>
</linearGradient>
<linearGradient id="paint5_linear_37_2" x1="116.453" y1="898.943" x2="1375.71" y2="463.83" gradientUnits="userSpaceOnUse">
<stop stop-color="white"/>
<stop offset="1" stop-color="#E8E8E8"/>
</linearGradient>
<linearGradient id="paint6_linear_37_2" x1="116.903" y1="907.865" x2="1388.32" y2="468.55" gradientUnits="userSpaceOnUse">
<stop stop-color="white"/>
<stop offset="1" stop-color="#E8E8E8"/>
</linearGradient>
<linearGradient id="paint7_linear_37_2" x1="117.6" y1="917.5" x2="1401.18" y2="473.984" gradientUnits="userSpaceOnUse">
<stop stop-color="white"/>
<stop offset="1" stop-color="#E8E8E8"/>
</linearGradient>
<linearGradient id="paint8_linear_37_2" x1="118.573" y1="927.934" x2="1414.31" y2="480.217" gradientUnits="userSpaceOnUse">
<stop stop-color="white"/>
<stop offset="1" stop-color="#E8E8E8"/>
</linearGradient>
<linearGradient id="paint9_linear_37_2" x1="118.77" y1="936.117" x2="1426.66" y2="484.198" gradientUnits="userSpaceOnUse">
<stop stop-color="white"/>
<stop offset="1" stop-color="#E8E8E8"/>
</linearGradient>
<linearGradient id="paint10_linear_37_2" x1="117.557" y1="940.219" x2="1437.61" y2="484.1" gradientUnits="userSpaceOnUse">
<stop stop-color="white"/>
<stop offset="1" stop-color="#E8E8E8"/>
</linearGradient>
<linearGradient id="paint11_linear_37_2" x1="116.694" y1="945.332" x2="1448.9" y2="485.015" gradientUnits="userSpaceOnUse">
<stop stop-color="white"/>
<stop offset="1" stop-color="#E8E8E8"/>
</linearGradient>
<linearGradient id="paint12_linear_37_2" x1="116.188" y1="951.477" x2="1460.54" y2="486.961" gradientUnits="userSpaceOnUse">
<stop stop-color="white"/>
<stop offset="1" stop-color="#E8E8E8"/>
</linearGradient>
<linearGradient id="paint13_linear_37_2" x1="116.032" y1="958.634" x2="1472.53" y2="489.92" gradientUnits="userSpaceOnUse">
<stop stop-color="white"/>
<stop offset="1" stop-color="#E8E8E8"/>
</linearGradient>
<linearGradient id="paint14_linear_37_2" x1="116.208" y1="966.749" x2="1484.86" y2="493.838" gradientUnits="userSpaceOnUse">
<stop stop-color="white"/>
<stop offset="1" stop-color="#E8E8E8"/>
</linearGradient>
<linearGradient id="paint15_linear_37_2" x1="116.687" y1="975.739" x2="1497.48" y2="498.631" gradientUnits="userSpaceOnUse">
<stop stop-color="white"/>
<stop offset="1" stop-color="#E8E8E8"/>
</linearGradient>
<linearGradient id="paint16_linear_37_2" x1="117.428" y1="985.487" x2="1510.36" y2="504.184" gradientUnits="userSpaceOnUse">
<stop stop-color="white"/>
<stop offset="1" stop-color="#E8E8E8"/>
</linearGradient>
<linearGradient id="paint17_linear_37_2" x1="118.363" y1="995.795" x2="1523.44" y2="510.296" gradientUnits="userSpaceOnUse">
<stop stop-color="white"/>
<stop offset="1" stop-color="#E8E8E8"/>
</linearGradient>
</defs>
</svg>
