<svg width="1362" height="378" viewBox="0 0 1362 378" fill="none" xmlns="http://www.w3.org/2000/svg">
<path d="M1269.03 167.397C1186.69 204.664 1084.65 193.468 997.889 163.322C911.131 133.176 833.854 85.8881 750.195 49.7722C666.522 13.6563 570.693 -11.449 480.171 7.47596C404.394 23.3169 341.31 68.2636 289.887 118.536C238.449 168.809 195.884 225.497 143.498 275.038C113.342 303.55 70.9894 331.665 27.7449 320.815" stroke="url(#paint0_linear_354_2992)" stroke-miterlimit="10"/>
<path d="M26.1599 322.437C60.3197 331.863 94.5786 317.322 122.866 297.208C130.21 292.007 137.144 286.433 143.597 280.798C161.625 265.031 178.577 248.261 195.077 231.12C228.331 196.589 259.788 160.56 294.967 127.231C325.405 98.385 359.508 71.2114 397.644 50.2924C425.422 35.046 455.421 23.1312 487.614 16.344C551.193 2.91817 617.433 10.5847 679.866 29.6955C707.078 38.0185 733.497 48.4842 758.855 59.8788C795.052 76.1532 830.118 94.3598 865.834 111.328C910.211 132.42 954.786 151.432 1001.23 165.588C1003.69 166.344 1006.17 167.075 1008.64 167.805C1095.34 193.121 1195.19 199.103 1274.46 158.937" stroke="url(#paint1_linear_354_2992)" stroke-miterlimit="10"/>
<path d="M24.5891 324.048C58.5366 334.266 93.2766 321.174 122.286 302.175C129.828 297.258 137.002 291.945 143.696 286.557C162.375 271.447 179.992 255.135 197.086 238.378C231.557 204.602 264.061 169.007 300.047 135.925C331.192 107.303 365.777 80.2404 404.323 59.2966C432.356 44.0625 462.652 32.1106 495.043 25.1995C559.16 11.526 626.022 18.6848 688.597 38.5262C715.851 47.1713 742.171 58.1447 767.487 69.9728C803.656 86.8913 838.75 105.569 875.06 121.967C920.145 142.353 965.483 158.9 1011.95 170.456C1014.42 171.075 1016.89 171.67 1019.37 172.252C1106.01 192.725 1203.65 193.518 1279.87 150.429" stroke="url(#paint2_linear_354_2992)" stroke-miterlimit="10"/>
<path d="M23.0186 325.658C56.7538 336.668 91.9749 325.013 121.706 307.129C129.46 302.497 136.861 297.456 143.809 292.291C163.139 277.837 181.407 261.984 199.124 245.598C234.812 212.579 268.349 177.416 305.155 144.595C337.023 116.183 372.088 89.2321 411.045 68.2883C439.332 53.0666 469.912 41.0652 502.515 34.0426C567.17 20.1214 634.654 26.7724 697.384 47.357C724.681 56.3116 750.902 67.8053 776.175 80.0669C812.316 97.617 847.453 116.777 884.358 132.618C930.149 152.299 976.266 166.369 1022.75 175.348C1025.21 175.819 1027.69 176.289 1030.17 176.735C1116.74 192.366 1212.2 187.956 1285.35 141.969" stroke="url(#paint3_linear_354_2992)" stroke-miterlimit="10"/>
<path d="M21.4336 327.28C54.9566 339.096 90.6022 328.816 121.097 312.108C129.05 307.748 136.691 302.992 143.88 298.063C163.875 284.278 182.794 268.87 201.105 252.868C238.01 220.604 272.594 185.863 310.221 153.302C342.796 125.113 378.343 98.2736 417.71 77.305C446.252 62.0957 477.114 50.0447 509.944 42.9231C575.151 28.7541 643.258 34.8973 706.129 56.225C733.483 65.4893 759.591 77.4908 784.821 90.1983C820.92 108.392 856.098 128.011 893.598 143.295C940.097 162.269 986.978 173.874 1033.49 180.265C1035.97 180.6 1038.43 180.934 1040.91 181.231C1127.42 192.019 1220.68 182.408 1290.75 133.51" stroke="url(#paint4_linear_354_2992)" stroke-miterlimit="10"/>
<path d="M19.8628 328.89C53.1735 341.499 89.2861 332.643 120.517 317.075C128.682 313 136.549 308.504 143.993 303.81C164.639 290.681 184.223 275.732 203.129 260.102C241.251 228.593 276.882 194.285 315.315 161.984C348.598 134.018 384.625 107.29 424.417 86.3092C453.2 71.1123 484.36 59.0241 517.401 51.7787C583.146 37.362 651.876 42.9974 714.889 65.0558C742.284 74.6422 768.293 87.1514 793.482 100.292C829.552 119.118 864.759 139.22 902.852 153.946C950.045 172.215 997.704 181.355 1044.25 185.157C1046.72 185.356 1049.18 185.541 1051.66 185.715C1138.12 191.672 1229.18 176.847 1296.19 125.051" stroke="url(#paint5_linear_354_2992)" stroke-miterlimit="10"/>
<path d="M18.2922 330.5C51.3907 343.901 87.9844 336.483 119.937 322.029C128.314 318.239 136.408 314.028 144.106 309.557C165.431 297.134 185.638 282.606 205.152 267.335C244.491 236.582 281.17 202.707 320.41 170.654C354.4 142.898 390.908 116.282 431.111 95.2887C460.148 80.1165 491.605 67.9664 524.859 60.6219C591.141 45.9699 660.494 51.0851 723.662 73.8867C751.115 83.7826 777.01 96.8121 802.156 110.374C838.198 129.844 873.433 150.416 912.121 164.573C960.021 182.135 1008.46 188.811 1055.02 190.012C1057.49 190.074 1059.95 190.124 1062.43 190.161C1148.83 191.276 1237.69 171.248 1301.63 116.542" stroke="url(#paint6_linear_354_2992)" stroke-miterlimit="10"/>
<path d="M16.7214 332.11C49.6077 346.317 86.6684 340.322 119.356 326.995C127.946 323.49 136.267 319.552 144.205 315.303C166.181 303.55 187.053 289.467 207.162 274.58C247.717 244.583 285.443 211.13 325.49 179.349C360.187 151.816 397.177 125.311 437.79 104.305C467.082 89.1455 498.822 76.9458 532.288 69.4898C599.108 54.5901 669.097 59.1975 732.407 82.7298C759.902 92.9478 785.699 106.485 810.802 120.481C846.816 140.595 882.079 161.637 921.362 175.224C969.969 192.081 1019.17 196.292 1065.77 194.905C1068.25 194.83 1070.71 194.744 1073.18 194.632C1159.53 190.904 1246.19 165.675 1307.07 108.058" stroke="url(#paint7_linear_354_2992)" stroke-miterlimit="10"/>
<path d="M15.1506 333.733C47.8246 348.732 85.3664 344.174 118.762 331.962C127.564 328.742 136.111 325.075 144.304 321.063C166.931 309.965 188.454 296.341 209.171 281.826C250.944 252.571 289.717 219.564 330.584 188.031C365.989 160.721 403.46 134.315 444.497 113.297C474.044 98.1497 506.067 85.9005 539.745 78.333C607.103 63.1856 677.715 67.2852 741.167 91.5606C768.718 102.088 794.402 116.146 819.462 130.575C855.434 151.32 890.74 172.846 930.616 185.876C979.931 202.026 1029.9 203.773 1076.52 199.797C1079 199.586 1081.46 199.363 1083.94 199.116C1170.22 190.545 1254.68 160.114 1312.49 99.5988" stroke="url(#paint8_linear_354_2992)" stroke-miterlimit="10"/>
<path d="M13.5801 335.343C46.0418 351.134 84.0647 348.026 118.182 336.928C127.196 333.993 135.97 330.587 144.403 326.81C167.681 316.381 189.87 303.203 211.18 289.071C254.17 260.572 293.99 227.999 335.664 196.725C371.791 169.626 409.729 143.344 451.176 122.314C480.978 107.179 513.284 94.8923 547.189 87.2134C615.084 71.8183 686.319 75.4101 749.926 100.416C777.52 111.254 803.104 125.831 828.123 140.694C864.066 162.083 899.4 184.067 939.885 196.54C989.908 211.997 1040.65 211.266 1087.29 204.689C1089.77 204.342 1092.25 203.971 1094.71 203.587C1180.93 190.186 1263.2 154.541 1317.94 91.1148" stroke="url(#paint9_linear_354_2992)" stroke-miterlimit="10"/>
<path d="M12.0093 336.953C44.2587 353.55 82.7628 351.865 117.602 341.895C126.828 339.257 135.828 336.111 144.516 332.569C168.445 322.797 191.285 310.077 213.204 296.317C257.411 268.573 298.278 236.421 340.758 205.407C377.593 178.531 416.012 152.361 457.87 131.305C487.912 116.183 520.529 103.847 554.632 96.0566C623.079 80.4138 694.936 83.4977 758.685 109.247C786.336 120.406 811.807 135.479 836.783 150.788C872.697 172.809 908.074 195.276 949.14 207.179C999.87 221.93 1051.38 218.734 1098.05 209.569C1100.52 209.086 1103 208.578 1105.46 208.058C1191.63 189.814 1271.69 148.979 1323.37 82.6431" stroke="url(#paint10_linear_354_2992)" stroke-miterlimit="10"/>
<path d="M10.4385 338.563C42.4757 355.953 81.4608 355.717 117.022 346.849C126.46 344.496 135.672 341.598 144.63 338.303C169.181 329.15 192.714 316.926 215.242 303.55C260.665 276.562 302.58 244.843 345.867 214.09C383.408 187.436 422.323 161.365 464.591 140.31C494.888 125.2 527.788 112.814 562.104 104.925C631.088 89.0341 703.568 91.6103 767.459 118.103C795.151 129.572 820.524 145.165 845.471 160.907C881.358 183.572 916.763 206.51 958.422 217.855C1009.86 231.9 1062.15 226.24 1108.83 214.486C1111.31 213.867 1113.78 213.223 1116.24 212.554C1202.35 189.468 1280.21 143.431 1328.83 74.184" stroke="url(#paint11_linear_354_2992)" stroke-miterlimit="10"/>
<path d="M8.85376 340.173C40.6787 358.355 80.145 359.581 116.427 351.816C126.064 349.747 135.517 347.122 144.715 344.062C169.931 335.578 194.115 323.812 217.237 310.795C263.878 284.563 306.839 253.277 350.947 222.772C389.196 196.329 428.592 170.382 471.27 149.302C501.822 134.204 535.005 121.781 569.547 113.768C639.069 97.6295 712.172 99.6979 776.218 126.921C803.968 138.712 829.227 154.813 854.132 170.976C889.975 194.273 925.423 217.694 967.677 228.469C1019.82 241.808 1072.87 233.671 1119.58 219.341C1122.06 218.586 1124.54 217.805 1127 217C1213.04 189.071 1288.71 137.833 1334.25 65.6875" stroke="url(#paint12_linear_354_2992)" stroke-miterlimit="10"/>
<path d="M7.28296 341.796C38.8956 360.783 78.8431 363.446 115.833 356.795C125.682 355.024 135.361 352.658 144.814 349.822C170.681 341.994 195.516 330.686 219.246 318.053C267.104 292.576 311.113 261.712 356.027 231.479C394.984 205.259 434.861 179.411 477.964 158.331C508.77 143.245 542.236 130.773 576.99 122.648C647.05 106.262 720.776 107.823 784.977 135.789C812.769 147.89 837.929 164.511 862.792 181.107C898.607 205.048 934.083 228.927 976.931 239.158C1029.78 251.791 1083.6 241.189 1130.34 224.258C1132.82 223.354 1135.29 222.438 1137.75 221.509C1223.73 188.749 1297.2 132.296 1339.68 57.2407" stroke="url(#paint13_linear_354_2992)" stroke-miterlimit="10"/>
<path d="M5.71216 343.406C37.1126 363.186 77.5553 367.359 115.253 361.749C125.328 360.275 135.219 358.169 144.913 355.568C171.431 348.41 196.931 337.548 221.256 325.286C270.33 300.552 315.372 270.134 361.107 240.149C400.771 214.152 441.129 188.415 484.643 167.31C515.689 152.237 549.467 139.715 584.419 131.491C655.017 114.87 729.379 115.91 793.708 144.607C821.543 157.018 846.603 174.159 871.424 191.189C907.211 215.762 942.715 240.124 986.172 249.785C1039.73 261.712 1094.33 248.645 1141.08 229.126C1143.56 228.085 1146.03 227.032 1148.49 225.955C1234.42 188.353 1305.69 126.698 1345.1 48.7318" stroke="url(#paint14_linear_354_2992)" stroke-miterlimit="10"/>
<path d="M4.14136 345.016C35.3295 365.601 76.2533 371.199 114.672 366.715C124.946 365.539 135.078 363.681 145.026 361.315C172.195 354.813 198.346 344.409 223.279 332.519C273.571 308.541 319.66 278.556 366.201 248.831C406.587 223.044 447.412 197.431 491.336 176.314C522.637 161.254 556.698 148.695 591.877 140.347C663.026 123.478 737.997 124.011 802.481 153.451C830.373 166.183 855.32 183.832 880.098 201.296C915.857 226.512 951.389 251.345 995.44 260.436C1049.71 271.657 1105.07 256.126 1151.85 234.018C1154.34 232.841 1156.8 231.652 1159.26 230.439C1245.13 187.994 1314.2 121.137 1350.55 40.2726" stroke="url(#paint15_linear_354_2992)" stroke-miterlimit="10"/>
<path d="M2.5708 346.626C33.5467 368.003 74.9375 375.051 114.092 371.67C124.578 370.778 134.936 369.192 145.125 367.062C172.945 361.216 199.761 351.271 225.289 339.765C276.811 316.542 323.933 286.978 371.296 257.513C412.389 231.949 453.695 206.435 498.043 185.306C529.6 170.27 563.943 157.649 599.334 149.202C671.022 132.086 746.615 132.11 811.255 162.294C839.189 175.336 864.037 193.493 888.773 211.402C924.489 237.263 960.064 262.566 1004.71 271.1C1059.68 281.615 1115.81 263.619 1162.62 238.922C1165.11 237.61 1167.57 236.284 1170.03 234.922C1255.84 187.634 1322.72 115.576 1355.99 31.8009" stroke="url(#paint16_linear_354_2992)" stroke-miterlimit="10"/>
<path d="M1 348.249C31.7636 370.418 73.6356 378.903 113.498 376.648C153.361 374.394 191.582 362.232 227.298 347.022C325.801 305.061 408.399 239.839 504.723 194.322C601.046 148.806 723.28 124.976 820 171.137C888.433 203.797 937.423 268.263 1013.95 281.751C1069.63 291.56 1126.53 271.1 1173.36 243.802C1262.79 191.684 1330.33 112.48 1361.41 23.3168" stroke="url(#paint17_linear_354_2992)" stroke-miterlimit="10"/>
<defs>
<linearGradient id="paint0_linear_354_2992" x1="116.95" y1="459.043" x2="1060.33" y2="-153.878" gradientUnits="userSpaceOnUse">
<stop stop-color="white"/>
<stop offset="1" stop-color="#E8E8E8"/>
</linearGradient>
<linearGradient id="paint1_linear_354_2992" x1="116.587" y1="462.54" x2="1069.49" y2="-156.571" gradientUnits="userSpaceOnUse">
<stop stop-color="white"/>
<stop offset="1" stop-color="#E8E8E8"/>
</linearGradient>
<linearGradient id="paint2_linear_354_2992" x1="116.31" y1="466.169" x2="1078.79" y2="-159.162" gradientUnits="userSpaceOnUse">
<stop stop-color="white"/>
<stop offset="1" stop-color="#E8E8E8"/>
</linearGradient>
<linearGradient id="paint3_linear_354_2992" x1="116.181" y1="470.025" x2="1088.23" y2="-161.526" gradientUnits="userSpaceOnUse">
<stop stop-color="white"/>
<stop offset="1" stop-color="#E8E8E8"/>
</linearGradient>
<linearGradient id="paint4_linear_354_2992" x1="116.221" y1="474.139" x2="1097.84" y2="-163.631" gradientUnits="userSpaceOnUse">
<stop stop-color="white"/>
<stop offset="1" stop-color="#E8E8E8"/>
</linearGradient>
<linearGradient id="paint5_linear_354_2992" x1="116.453" y1="478.548" x2="1107.65" y2="-165.441" gradientUnits="userSpaceOnUse">
<stop stop-color="white"/>
<stop offset="1" stop-color="#E8E8E8"/>
</linearGradient>
<linearGradient id="paint6_linear_354_2992" x1="116.903" y1="483.293" x2="1117.67" y2="-166.916" gradientUnits="userSpaceOnUse">
<stop stop-color="white"/>
<stop offset="1" stop-color="#E8E8E8"/>
</linearGradient>
<linearGradient id="paint7_linear_354_2992" x1="117.6" y1="488.417" x2="1127.94" y2="-168.01" gradientUnits="userSpaceOnUse">
<stop stop-color="white"/>
<stop offset="1" stop-color="#E8E8E8"/>
</linearGradient>
<linearGradient id="paint8_linear_354_2992" x1="118.574" y1="493.966" x2="1138.48" y2="-168.679" gradientUnits="userSpaceOnUse">
<stop stop-color="white"/>
<stop offset="1" stop-color="#E8E8E8"/>
</linearGradient>
<linearGradient id="paint9_linear_354_2992" x1="118.77" y1="498.318" x2="1148.25" y2="-170.544" gradientUnits="userSpaceOnUse">
<stop stop-color="white"/>
<stop offset="1" stop-color="#E8E8E8"/>
</linearGradient>
<linearGradient id="paint10_linear_354_2992" x1="117.557" y1="500.499" x2="1156.6" y2="-174.579" gradientUnits="userSpaceOnUse">
<stop stop-color="white"/>
<stop offset="1" stop-color="#E8E8E8"/>
</linearGradient>
<linearGradient id="paint11_linear_354_2992" x1="116.694" y1="503.219" x2="1165.31" y2="-178.074" gradientUnits="userSpaceOnUse">
<stop stop-color="white"/>
<stop offset="1" stop-color="#E8E8E8"/>
</linearGradient>
<linearGradient id="paint12_linear_354_2992" x1="116.188" y1="506.487" x2="1174.37" y2="-181.021" gradientUnits="userSpaceOnUse">
<stop stop-color="white"/>
<stop offset="1" stop-color="#E8E8E8"/>
</linearGradient>
<linearGradient id="paint13_linear_354_2992" x1="116.032" y1="510.293" x2="1183.77" y2="-183.428" gradientUnits="userSpaceOnUse">
<stop stop-color="white"/>
<stop offset="1" stop-color="#E8E8E8"/>
</linearGradient>
<linearGradient id="paint14_linear_354_2992" x1="116.208" y1="514.609" x2="1193.51" y2="-185.324" gradientUnits="userSpaceOnUse">
<stop stop-color="white"/>
<stop offset="1" stop-color="#E8E8E8"/>
</linearGradient>
<linearGradient id="paint15_linear_354_2992" x1="116.686" y1="519.39" x2="1203.55" y2="-186.754" gradientUnits="userSpaceOnUse">
<stop stop-color="white"/>
<stop offset="1" stop-color="#E8E8E8"/>
</linearGradient>
<linearGradient id="paint16_linear_354_2992" x1="117.428" y1="524.574" x2="1213.85" y2="-187.779" gradientUnits="userSpaceOnUse">
<stop stop-color="white"/>
<stop offset="1" stop-color="#E8E8E8"/>
</linearGradient>
<linearGradient id="paint17_linear_354_2992" x1="118.363" y1="530.056" x2="1224.34" y2="-188.506" gradientUnits="userSpaceOnUse">
<stop stop-color="white"/>
<stop offset="1" stop-color="#E8E8E8"/>
</linearGradient>
</defs>
</svg>
