<svg width="560" height="300" viewBox="0 0 560 300" fill="none" xmlns="http://www.w3.org/2000/svg">
<g clip-path="url(#clip0_595_4803)">
<mask id="mask0_595_4803" style="mask-type:alpha" maskUnits="userSpaceOnUse" x="19" y="-1" width="521" height="301">
<path d="M539.683 -0.793701H19.8413V300H539.683V-0.793701Z" fill="#F6FAFC"/>
</mask>
<g mask="url(#mask0_595_4803)">
<path fill-rule="evenodd" clip-rule="evenodd" d="M362.191 389.629C318.179 393.206 279.852 370.724 236.425 364.225C183.263 356.271 120.542 380.956 79.8277 347.375C38.1411 312.994 17.6916 251.995 28.5733 194.922C39.455 137.849 64.9276 90.6666 95.1245 54.1017C125.321 17.5368 172.149 8.99545 227.254 2.38521C266.577 -2.33185 310.598 9.25037 350.099 9.69807C405.192 10.3224 478.414 -15.414 509.881 27.9134C541.659 71.6706 474.856 129.594 476.441 183.664C478.081 239.587 546.652 291.52 519.067 341.251C492.29 389.521 417.975 385.094 362.191 389.629Z" fill="#EDF4FA"/>
<path opacity="0.3" fill-rule="evenodd" clip-rule="evenodd" d="M210.336 86.3015C239.167 63.6163 246.273 14.5675 281.855 5.60389C317.192 -3.2977 348.879 28.4194 382.317 42.9778C417.127 58.1331 459.108 62.6416 482.167 92.815C505.817 123.761 507.244 165.856 505.957 204.76C504.688 243.153 500.858 285.009 474.879 313.267C449.744 340.609 408.805 344.113 372.17 350.291C342.566 355.284 314.052 344.665 284.034 345.455C244.789 346.487 201.09 378.443 169.102 355.633C138.046 333.489 154.831 283.009 144.844 246.205C134.931 209.667 96.3365 175.305 110.674 140.299C125.294 104.603 180.031 110.148 210.336 86.3015Z" fill="#D0DEEF"/>
<path d="M161.978 163.722C161.999 163.729 162.022 163.729 162.044 163.725C162.067 163.721 162.087 163.712 162.105 163.698C162.124 163.685 162.138 163.668 162.148 163.647C162.159 163.627 162.163 163.605 162.163 163.582C162.163 163.56 162.159 163.537 162.148 163.517C162.138 163.497 162.124 163.479 162.105 163.466C162.087 163.452 162.067 163.443 162.044 163.439C162.022 163.435 161.999 163.436 161.978 163.442C161.947 163.451 161.92 163.469 161.901 163.495C161.882 163.52 161.872 163.55 161.872 163.582C161.872 163.614 161.882 163.645 161.901 163.67C161.92 163.695 161.947 163.714 161.978 163.722Z" fill="#FF1D25"/>
<path d="M160.294 162.879H160.16C160.127 162.868 160.092 162.868 160.059 162.879C160.049 162.912 160.049 162.947 160.059 162.979C160.053 163.013 160.053 163.048 160.059 163.081C160.092 163.089 160.127 163.089 160.16 163.081H160.294C160.327 163.093 160.363 163.093 160.395 163.081C160.406 163.048 160.406 163.013 160.395 162.979C160.402 162.964 160.406 162.947 160.406 162.929C160.406 162.912 160.402 162.895 160.395 162.879C160.363 162.866 160.327 162.866 160.294 162.879Z" fill="#FF1D25"/>
<path d="M158.053 164.002C158.075 164.008 158.098 164.01 158.12 164.006C158.142 164.001 158.163 163.992 158.181 163.979C158.198 163.964 158.213 163.947 158.224 163.927C158.233 163.906 158.239 163.884 158.239 163.862C158.239 163.839 158.233 163.817 158.224 163.797C158.213 163.777 158.198 163.759 158.181 163.745C158.163 163.732 158.142 163.723 158.12 163.718C158.098 163.714 158.075 163.715 158.053 163.721C158.022 163.73 157.996 163.748 157.976 163.774C157.957 163.799 157.947 163.83 157.947 163.862C157.947 163.894 157.957 163.925 157.976 163.95C157.996 163.975 158.022 163.994 158.053 164.002Z" fill="#FF1D25"/>
<path d="M165.207 223.852C165.238 223.844 165.265 223.825 165.284 223.8C165.303 223.775 165.313 223.744 165.313 223.713C165.313 223.681 165.303 223.65 165.284 223.625C165.265 223.599 165.238 223.581 165.207 223.572C165.177 223.581 165.15 223.599 165.131 223.625C165.112 223.65 165.102 223.681 165.102 223.713C165.102 223.744 165.112 223.775 165.131 223.8C165.15 223.825 165.177 223.844 165.207 223.852Z" fill="#FF1D25"/>
<path d="M153.948 108.492H153.802H153.623L153.252 108.357C153.217 108.35 153.18 108.356 153.149 108.375C153.118 108.394 153.095 108.423 153.084 108.458C153.077 108.495 153.082 108.533 153.102 108.567C153.12 108.599 153.15 108.625 153.186 108.637L153.567 108.761C153.698 108.8 153.833 108.823 153.971 108.828C153.989 108.828 154.007 108.825 154.025 108.817C154.042 108.809 154.057 108.798 154.07 108.785C154.082 108.771 154.092 108.755 154.098 108.737C154.104 108.72 154.106 108.701 154.105 108.682C154.105 108.664 154.102 108.647 154.094 108.631C154.088 108.614 154.078 108.6 154.066 108.587C154.053 108.575 154.038 108.565 154.022 108.558C154.005 108.552 153.988 108.548 153.971 108.548L153.948 108.492Z" fill="#E5EFF9"/>
<path d="M373.193 197.732L137.502 256.428V31.9731C137.504 31.4758 137.608 30.984 137.809 30.5289C138.01 30.0739 138.303 29.6654 138.67 29.3293C139.036 28.9931 139.469 28.7366 139.939 28.576C140.41 28.4153 140.909 28.3539 141.405 28.3958L373.193 48.9741V197.732Z" fill="#F6FAFC"/>
<path d="M227.448 230.424L138.855 255.712V31.3588C138.855 30.8613 138.958 30.3692 139.158 29.9138C139.359 29.4584 139.652 29.05 140.019 28.7143C140.386 28.3788 140.82 28.1234 141.291 27.9647C141.763 27.806 142.262 27.7474 142.757 27.7927L227.392 35.3062L227.448 230.424Z" fill="white"/>
<path d="M374.253 60.7975L138.921 47.744V31.36C138.917 30.8624 139.018 30.3697 139.216 29.9135C139.415 29.4574 139.707 29.0481 140.074 28.712C140.441 28.3758 140.874 28.1204 141.346 27.9622C141.817 27.8041 142.317 27.7467 142.813 27.7938L374.253 48.3272V60.7975Z" fill="white"/>
<path d="M374.253 60.7956L138.921 47.7422" stroke="#E5EFF9" stroke-width="0.5" stroke-miterlimit="10"/>
<path d="M204.894 63.2193L138.909 60.3484V89.3483L204.759 89.0681C205.707 89.0626 206.614 88.6816 207.282 88.0094C207.951 87.3372 208.325 86.4277 208.325 85.4793V66.8078C208.327 65.8824 207.97 64.9928 207.331 64.3245C206.691 63.6556 205.818 63.2597 204.894 63.2193Z" fill="#F6FAFC"/>
<path d="M227.448 52.656V232.242" stroke="#E5EFF9" stroke-width="0.5" stroke-miterlimit="10"/>
<path d="M219.428 115.557C219.43 116.47 219.082 117.349 218.457 118.014C217.832 118.679 216.975 119.08 216.064 119.134L147.365 123.799C146.874 123.835 146.382 123.769 145.918 123.605C145.455 123.441 145.03 123.183 144.67 122.847C144.312 122.511 144.026 122.104 143.832 121.652C143.637 121.201 143.538 120.714 143.541 120.222V97.0755C143.541 96.139 143.909 95.239 144.565 94.5699C145.221 93.9009 146.114 93.5159 147.051 93.4985L215.75 92.1302C216.226 92.1199 216.7 92.2048 217.143 92.3794C217.586 92.5548 217.99 92.8167 218.33 93.1501C218.67 93.4834 218.941 93.881 219.126 94.3199C219.311 94.7596 219.406 95.231 219.405 95.708L219.428 115.557Z" fill="#F6FAFC"/>
<path d="M221.11 113.875C221.112 114.788 220.764 115.667 220.139 116.332C219.513 116.997 218.658 117.398 217.746 117.452L149.07 122.106C148.579 122.141 148.086 122.075 147.623 121.911C147.159 121.748 146.735 121.49 146.375 121.153C146.017 120.818 145.731 120.411 145.536 119.96C145.342 119.507 145.243 119.021 145.246 118.529V97.0755C145.246 96.139 145.613 95.239 146.27 94.5699C146.926 93.9009 147.819 93.5159 148.755 93.4985L217.455 92.1302C217.931 92.1199 218.405 92.2048 218.848 92.3794C219.291 92.5548 219.694 92.8167 220.035 93.1501C220.375 93.4834 220.646 93.881 220.831 94.3199C221.016 94.7596 221.11 95.231 221.11 95.708V113.875Z" fill="#D0DEEF"/>
<path d="M371.708 91.6134L235.634 94.473C235.157 94.4801 234.684 94.3928 234.241 94.2158C233.799 94.0388 233.396 93.7761 233.056 93.442C232.716 93.1087 232.445 92.7103 232.26 92.2714C232.075 91.8325 231.979 91.3611 231.978 90.8841V67.1547C231.975 66.7031 232.074 66.2563 232.269 65.8484C232.463 65.4404 232.747 65.0825 233.099 64.7999L236.161 62.5007L371.764 69.5325L371.708 91.6134Z" fill="#DBE7EF"/>
<path d="M210.569 83.2356C210.571 83.7054 210.479 84.1697 210.301 84.6038C210.122 85.038 209.86 85.4324 209.529 85.7649C209.197 86.0975 208.803 86.361 208.37 86.5403C207.937 86.7205 207.472 86.8134 207.003 86.8134L135.231 87.1276C134.286 87.13 133.376 86.7594 132.702 86.0959C132.029 85.4324 131.644 84.5292 131.632 83.5832L131.407 61.4577C131.402 60.9711 131.496 60.4886 131.683 60.0395C131.871 59.5903 132.148 59.184 132.497 58.8452C132.846 58.5064 133.261 58.2422 133.716 58.0686C134.17 57.895 134.656 57.8157 135.141 57.8355L207.194 60.9755C208.117 61.016 208.99 61.4119 209.63 62.0805C210.27 62.7492 210.626 63.6389 210.625 64.5641L210.569 83.2356Z" fill="#D0DEEF"/>
<path d="M373.95 89.3691L237.875 92.2286C237.399 92.2366 236.925 92.1493 236.483 91.9723C236.04 91.7953 235.637 91.5326 235.298 91.1985C234.957 90.8643 234.687 90.4667 234.502 90.0278C234.317 89.5881 234.221 89.1167 234.219 88.6405V65.6508C234.217 65.1683 234.313 64.6913 234.501 64.2466C234.688 63.8023 234.963 63.4004 235.31 63.0652C235.657 62.73 236.068 62.4684 236.518 62.296C236.969 62.1237 237.449 62.0442 237.932 62.0624L373.95 67.2881V89.3691Z" fill="#D0DEEF"/>
<path d="M330.687 120.537C330.687 121.871 329.285 123.027 327.468 123.172L259.375 128.779C258.43 128.888 257.476 128.671 256.672 128.163C256.337 127.977 256.056 127.706 255.86 127.377C255.663 127.048 255.556 126.673 255.551 126.29L255.831 111.711C255.854 110.528 256.282 109.388 257.042 108.482L258.59 106.486L327.176 103.043C328.055 102.998 328.925 103.229 329.666 103.705C329.966 103.899 330.215 104.162 330.393 104.472C330.57 104.782 330.671 105.13 330.687 105.487V120.537Z" fill="#DBE7EF"/>
<path d="M243.819 71.2261L341.686 73.738" stroke="#A0C0E0" stroke-width="3" stroke-miterlimit="10"/>
<path d="M302.415 83.5737L341.687 83.5848" stroke="#A0C0E0" stroke-width="3" stroke-miterlimit="10"/>
<path d="M243.842 83.5627L291.391 83.5739" stroke="#A0C0E0" stroke-width="3" stroke-miterlimit="10"/>
<path d="M332.928 118.294C332.928 119.628 331.526 120.784 329.709 120.929L261.616 126.536C260.673 126.649 259.719 126.436 258.913 125.931C258.582 125.74 258.305 125.468 258.109 125.14C257.913 124.813 257.804 124.44 257.792 124.059V108.359C257.792 106.945 259.373 105.734 261.37 105.655L329.418 103.043C330.297 102.998 331.167 103.229 331.907 103.705C332.207 103.899 332.456 104.162 332.634 104.472C332.811 104.782 332.912 105.13 332.928 105.487V118.294Z" fill="#518DE0"/>
<g opacity="0.4">
<path opacity="0.4" d="M276.971 115.376C276.907 117.165 276.185 118.867 274.944 120.156C273.702 121.445 272.028 122.231 270.243 122.363C269.384 122.473 268.512 122.401 267.683 122.151C266.855 121.9 266.088 121.477 265.435 120.909C264.781 120.342 264.255 119.642 263.891 118.856C263.527 118.071 263.334 117.217 263.324 116.351C263.391 114.529 264.14 112.799 265.421 111.501C266.702 110.204 268.422 109.434 270.243 109.343C271.089 109.257 271.944 109.348 272.753 109.612C273.562 109.875 274.306 110.305 274.94 110.873C275.574 111.44 276.081 112.135 276.431 112.91C276.781 113.686 276.965 114.525 276.971 115.376Z" stroke="white" stroke-width="1.5" stroke-miterlimit="10" stroke-linecap="round"/>
<path fill-rule="evenodd" clip-rule="evenodd" d="M271.938 113.341L273.142 113.246C273.454 113.221 273.726 113.471 273.732 113.787L273.798 117.83C273.804 118.161 273.54 118.437 273.229 118.462L267.594 118.905C267.267 118.931 267.01 118.68 267.005 118.365L266.938 114.321C266.933 113.991 267.196 113.714 267.508 113.689L268.697 113.596V113.581C268.689 113.085 269.083 112.647 269.574 112.609L271.031 112.494C271.521 112.455 271.929 112.83 271.937 113.326L271.938 113.341ZM269.581 113.06C269.329 113.08 269.124 113.306 269.129 113.562L271.507 113.389V113.375C271.502 113.12 271.291 112.925 271.038 112.945L269.581 113.06ZM271.029 115.956L271.04 116.617L269.642 116.728L269.631 116.051L268.233 116.146L267.39 115.58L267.436 118.331C267.437 118.406 267.498 118.476 267.587 118.47L273.236 118.024C273.31 118.019 273.384 117.953 273.383 117.862L273.337 115.127L272.367 115.866L271.029 115.956ZM267.367 115.055L268.36 115.714L272.196 115.443L273.298 114.604L273.286 113.822C273.284 113.747 273.224 113.676 273.134 113.683L267.5 114.127C267.426 114.132 267.352 114.198 267.354 114.289L267.367 115.055ZM270.602 116.23L270.598 116.005L270.048 116.048L270.052 116.274L270.602 116.23Z" fill="white" fill-opacity="0.6"/>
</g>
<path d="M373.951 188.225L234.198 228.002V144.41L373.951 127.342V188.225Z" stroke="#E5EFF9" stroke-width="0.5" stroke-miterlimit="10"/>
<path opacity="0.4" d="M283.978 114.693L326.894 111.688" stroke="white" stroke-width="3" stroke-miterlimit="10"/>
<g style="mix-blend-mode:multiply" opacity="0.4">
<g style="mix-blend-mode:multiply" opacity="0.6">
<g style="mix-blend-mode:multiply" opacity="0.6">
<path d="M367.691 151.26C368.14 156.666 367.995 162.105 368.465 167.51C368.589 168.956 368.756 170.403 369.003 171.839C369.003 171.928 369.16 171.839 369.138 171.839C368.241 166.557 368.297 161.174 368.095 155.836C368.095 154.322 367.96 152.808 367.837 151.294C367.837 151.205 367.691 151.205 367.691 151.294V151.26Z" fill="#B8D2E8"/>
</g>
</g>
<g style="mix-blend-mode:multiply" opacity="0.4">
<g style="mix-blend-mode:multiply" opacity="0.4">
<path d="M351.669 136.122C352.387 140.294 350.929 144.455 350.267 148.536C349.981 150.625 349.846 152.731 349.864 154.839C349.864 157.138 349.864 159.437 349.864 161.747C349.864 166.3 349.695 170.864 349.314 175.406C348.939 179.778 348.333 184.128 347.497 188.437C346.656 192.822 345.579 197.162 344.334 201.457C344.167 201.995 344.01 202.578 343.841 203.083C343.841 203.173 343.953 203.206 343.975 203.083C345.288 198.754 346.421 194.381 347.34 189.963C348.221 185.697 348.88 181.389 349.314 177.055C349.762 172.569 349.953 167.982 350.009 163.44C350.009 161.097 350.009 158.764 350.009 156.432C349.964 154.205 350.043 151.977 350.245 149.759C350.715 145.655 352.229 141.64 351.983 137.423C351.96 136.945 351.904 136.469 351.814 135.999C351.814 135.909 351.669 135.999 351.68 135.999L351.669 136.122Z" fill="#B8D2E8"/>
</g>
</g>
</g>
<g style="mix-blend-mode:multiply">
<g style="mix-blend-mode:multiply">
<path d="M414.469 208.017C414.499 208.008 414.526 207.99 414.545 207.964C414.564 207.939 414.575 207.909 414.575 207.877C414.575 207.845 414.564 207.814 414.545 207.789C414.526 207.764 414.499 207.745 414.469 207.737C414.438 207.745 414.412 207.764 414.393 207.789C414.374 207.814 414.364 207.845 414.364 207.877C414.364 207.909 414.374 207.939 414.393 207.964C414.412 207.99 414.438 208.008 414.469 208.017Z" fill="#E5EFF9"/>
</g>
</g>
<path d="M144.394 73.2659L199.602 73.5802" stroke="#A0C0E0" stroke-width="3" stroke-miterlimit="10"/>
<path d="M157.919 107.505L211.254 105.128" stroke="#A0C0E0" stroke-width="3" stroke-miterlimit="10"/>
<path d="M125.397 163.855H125.531" stroke="#FF1D25" stroke-width="0.25" stroke-miterlimit="10"/>
<path d="M403.563 138.064C403.563 138.064 400.079 144.69 404.433 148.782C408.786 152.875 405.739 138.404 405.739 138.404L403.563 138.064Z" fill="#2C4153"/>
<path d="M428.065 163.856C426.689 164.43 417.137 164.953 416.997 165.101C416.223 165.868 417.764 168.958 416.997 169.733C416.815 169.907 416.232 162.837 413.436 165.633C413.428 165.71 413.428 165.789 413.436 165.868C413.436 169.22 411.033 172.79 409.336 175.619C407.637 178.449 402.021 186.356 401.133 189.49C399.888 189.237 397.528 189.682 396.632 189.682C395.378 189.682 392.356 188.532 391.233 189.281C391.067 189.394 389.953 199.172 389.77 200.261C389.64 201.053 389.596 202.603 390.11 203.239C390.519 205.511 391.172 208.741 401.307 208.741C401.307 208.741 399.505 211.136 400.054 211.685C400.445 212.076 398.774 215.028 398.582 215.551C397.389 218.72 397.041 222.987 400.436 224.449C403.832 225.912 408.204 222.037 411.582 221.654C414.594 221.324 415.936 223.779 418.469 224.136C421.874 224.624 424.051 221.837 427.22 221.202C428.169 221.01 431.234 221.82 431.852 221.202C439.253 213.81 434.09 201.479 435.117 192.25C435.597 187.897 437.268 184.222 437.268 179.721C437.268 177.848 437.608 175.593 437.198 173.764C436.467 170.473 433.15 170.012 431.635 167.487C431.103 166.607 428.822 163.533 428.065 163.856Z" fill="white"/>
<path d="M411.462 207.444C408.563 209.848 402.842 208.229 401.301 208.742C400.918 208.872 400.613 211.467 399.977 211.641C399.977 211.641 398.767 215.029 398.575 215.551C397.383 218.721 397.034 222.986 400.43 224.45C403.825 225.913 408.197 222.038 411.575 221.655C414.588 221.324 415.929 223.779 418.463 224.136C418.463 224.136 415.563 216.996 418.132 212.764C420.7 208.533 423.791 197.963 423.791 197.963C423.791 197.963 418.428 201.671 411.462 207.444Z" fill="#E5EFF9"/>
<path d="M412.819 328.098C417.229 329.684 421.986 330.045 426.586 329.144L418.984 259.312L406.925 244.779V270.195C406.925 270.195 408.37 272.555 409.023 273.861C409.676 275.167 408.37 279.086 408.631 281.332C408.892 283.579 409.023 286.556 409.415 287.209C409.806 287.863 410.99 299.687 410.99 299.687C410.99 299.687 412.959 314.489 412.819 317.102C412.68 319.713 412.819 328.098 412.819 328.098Z" fill="#2C4153"/>
<g style="mix-blend-mode:multiply" opacity="0.6">
<path d="M412.819 328.098C417.229 329.684 421.986 330.045 426.586 329.144L418.984 259.312L406.925 244.779V270.195C406.925 270.195 408.37 272.555 409.023 273.861C409.676 275.167 408.37 279.086 408.631 281.332C408.892 283.579 409.023 286.556 409.415 287.209C409.806 287.863 410.99 299.687 410.99 299.687C410.99 299.687 412.959 314.489 412.819 317.102C412.68 319.713 412.819 328.098 412.819 328.098Z" fill="#2C4153"/>
</g>
<path d="M429.467 221.047C429.467 221.047 435.24 231.138 435.763 232.444C436.285 233.75 438.775 238.74 436.677 243.329C434.579 247.917 433.925 250.668 434.065 251.165C434.204 251.661 433.803 253.655 432.889 254.047C432.344 254.339 431.925 254.818 431.707 255.396C431.489 255.974 431.488 256.612 431.705 257.191C432.228 258.505 432.489 260.995 431.966 261.544C431.444 262.092 430.921 278.845 430.921 278.845C432.963 282.778 434.295 287.04 434.857 291.436C435.902 299.037 436.773 316.208 437.469 319.482C438.166 322.756 439.324 331.393 439.324 331.393C439.324 331.393 430.93 336.26 423.721 333.248C423.721 333.248 423.59 307.03 421.491 304.148L420.168 300.604C420.168 300.604 417.286 296.677 417.286 294.187C417.286 294.187 414.273 290.121 414.143 287.761C414.012 285.402 411.26 272.559 411.26 272.559C411.26 272.559 410.738 263.999 408.248 258.183C408.248 258.183 407.717 253.028 407.455 250.799C407.194 248.57 406.802 242.963 406.802 242.963C406.802 242.963 405.487 236.406 405.749 235.483C406.01 234.56 403.921 226.968 403.389 226.044C402.858 225.121 403.389 222.118 403.389 222.118L429.467 221.047Z" fill="#2C4153"/>
<g style="mix-blend-mode:multiply" opacity="0.4">
<path d="M424.223 290.005C420.949 282.813 421.21 262.064 420.644 251.981C420.244 244.71 419.495 229.446 419.112 221.506L404.171 222.106C404.171 222.106 403.648 225.119 404.171 226.033C404.693 226.948 406.782 234.557 406.53 235.472C406.278 236.386 407.575 242.952 407.575 242.952C407.575 242.952 407.967 248.585 408.236 250.787C408.506 252.991 409.021 258.171 409.021 258.171C411.51 263.988 412.033 272.547 412.033 272.547C412.033 272.547 414.785 285.433 414.941 287.759C415.098 290.083 418.094 294.184 418.094 294.184C418.094 296.675 420.975 300.602 420.975 300.602L422.282 304.145C424.38 307.028 424.51 333.245 424.51 333.245C427.003 334.213 429.713 334.481 432.347 334.02C431.119 325.104 426.992 296.074 424.223 290.005Z" fill="#2C4153"/>
</g>
<g style="mix-blend-mode:multiply" opacity="0.4">
<path d="M423.008 225.757C425.211 224.274 427.825 223.521 430.479 223.606L430.54 222.927C429.904 221.795 429.469 221.047 429.469 221.047L403.347 222.091C403.347 222.091 402.833 225.104 403.347 226.018C403.47 226.262 403.572 226.515 403.652 226.776C407.361 225.444 413.709 223.99 413.709 223.99C413.709 223.99 419.438 228.221 423.008 225.757Z" fill="#2C4153"/>
</g>
<path d="M407.57 161.608C407.064 161.513 406.812 162.844 406.577 162.375C405.871 160.955 404.757 161.094 404.121 162.375C404.078 162.461 403.999 162.853 403.895 162.697C403.224 161.608 401.971 160.816 400.951 162.348C399.394 164.682 399.759 167.529 399.454 170.271C399.14 173.413 398.432 176.501 397.347 179.467C396.407 182.078 394.901 184.447 394.09 187.111C394.029 187.294 393.124 189.279 393.316 189.375C394.456 189.95 400.003 190.107 401.152 189.532C401.229 188.855 401.252 188.175 401.222 187.494C401.401 185.697 401.742 183.92 402.24 182.183C403.406 177.205 405.72 172.568 408.997 168.644C409.467 168.06 409.38 163.489 409.11 162.697C408.961 162.404 408.743 162.151 408.474 161.962C408.205 161.773 407.895 161.651 407.57 161.608Z" fill="#F6C7BD"/>
<path d="M421.822 148.034C421.76 148.763 421.584 149.477 421.3 150.15C420.821 151.274 419.689 151.16 419.088 151.761C418.731 152.118 419.088 154.669 419.001 155.244C418.713 157.552 416.25 160.277 414.108 161.252C414.926 163.185 416.075 165.031 416.259 167.199C416.31 167.809 416.259 170.934 416.702 171.361C416.702 171.361 418.949 170.291 419.167 170.238C420.962 169.845 422.789 169.618 424.626 169.559C425.723 169.489 430.321 169.864 431.279 169.114C430.503 167.985 429.821 166.794 429.24 165.553C428.543 163.901 428.194 162.122 428.213 160.329C427.691 158.083 427.343 155.749 426.881 153.451C426.655 153.703 426.411 153.877 426.219 153.686C424.922 152.397 424.617 150.202 423.276 148.879C422.554 148.217 421.256 147.773 421.822 148.034Z" fill="#F6C7BD"/>
<g style="mix-blend-mode:multiply" opacity="0.6">
<path d="M421.23 154.687C421.897 152.63 422.317 150.502 422.484 148.348C421.918 148.008 421.439 147.86 421.822 148.034C421.76 148.763 421.584 149.477 421.3 150.15C420.821 151.273 419.689 151.16 419.088 151.761C418.731 152.118 419.088 154.669 419.001 155.244C418.713 157.552 416.25 160.277 414.108 161.252C414.926 163.185 416.075 165.031 416.259 167.199C416.273 168.425 416.357 169.649 416.511 170.864L424.783 164.36L421.23 154.687Z" fill="#F6C7BD"/>
</g>
<path d="M428.065 163.856C426.689 164.43 417.137 164.953 416.997 165.101C416.223 165.868 417.764 168.958 416.997 169.733C416.815 169.907 416.232 162.837 413.436 165.633C413.428 165.71 413.428 165.789 413.436 165.868C413.436 169.22 411.033 172.79 409.336 175.619C407.637 178.449 402.021 186.356 401.133 189.49C399.888 189.237 397.528 189.682 396.632 189.682C395.378 189.682 392.356 188.532 391.233 189.281C391.067 189.394 389.953 199.172 389.77 200.261C389.64 201.053 389.596 202.603 390.11 203.239C390.519 205.511 391.172 208.741 401.307 208.741C401.307 208.741 399.505 211.136 400.054 211.685C400.445 212.076 398.774 215.028 398.582 215.551C397.389 218.72 397.041 222.987 400.436 224.449C403.832 225.912 408.204 222.037 411.582 221.654C414.594 221.324 415.936 223.779 418.469 224.136C421.874 224.624 424.051 221.837 427.22 221.202C428.169 221.01 431.234 221.82 431.852 221.202C439.253 213.81 434.09 201.479 435.117 192.25C435.597 187.897 437.268 184.222 437.268 179.721C437.268 177.848 437.608 175.593 437.198 173.764C436.467 170.473 433.15 170.012 431.635 167.487C431.103 166.607 428.822 163.533 428.065 163.856Z" fill="white"/>
<path d="M411.462 207.444C408.563 209.848 402.842 208.229 401.301 208.742C400.918 208.872 400.613 211.467 399.977 211.641C399.977 211.641 398.767 215.029 398.575 215.551C397.383 218.721 397.034 222.986 400.43 224.45C403.825 225.913 408.197 222.038 411.575 221.655C414.588 221.324 415.929 223.779 418.463 224.136C418.463 224.136 415.563 216.996 418.132 212.764C420.7 208.533 423.791 197.963 423.791 197.963C423.791 197.963 418.428 201.671 411.462 207.444Z" fill="#E5EFF9"/>
<path d="M406.983 179.803C408.916 177.878 415.69 170.644 417.728 169.624C418.764 169.102 420.183 169.485 421.385 169.494C427.384 169.494 428.351 169.015 429.822 167.709L429.274 166.603C426.536 168.276 423.32 168.993 420.131 168.64C419.261 168.535 418.379 168.666 417.578 169.02C416.776 169.374 416.085 169.938 415.577 170.651L406.983 179.803Z" fill="#E5EFF9"/>
<path d="M431.238 177.382C429.34 172.889 425.3 170.251 419.518 173.725C411.447 178.567 411.02 195.493 400.71 195.493L402.826 194.152C402.586 192.544 402.086 190.986 401.346 189.537C400.405 187.961 403.087 185.767 405.308 183.582C412.143 176.877 414.528 174.805 419.352 172.123C429.27 166.602 431.238 177.382 431.238 177.382Z" fill="#E5EFF9"/>
<path d="M421.678 201.841C421.954 202.729 422.331 203.582 422.801 204.384C426.859 210.879 425.544 200.64 425.544 198.289" stroke="#E5EFF9" stroke-width="0.5" stroke-miterlimit="10"/>
<path d="M435.044 209.374C434.591 207.554 432.972 206.03 432.006 204.436C432.006 204.358 430.508 201.955 430.098 202.695C428.557 205.386 432.641 211.402 434.356 213.144" stroke="#E5EFF9" stroke-width="0.5" stroke-miterlimit="10"/>
<path d="M391.996 194.63C394.374 194.63 396.855 194.682 399.249 194.682" stroke="#E5EFF9" stroke-width="0.5" stroke-miterlimit="10"/>
<path d="M423.134 221.458C421.976 220.875 413.913 212.602 415.881 217.818C416.211 218.76 416.64 219.665 417.161 220.517C417.897 221.618 418.727 222.652 419.643 223.609" stroke="#E5EFF9" stroke-width="0.5" stroke-miterlimit="10"/>
<path d="M413.2 167.708C413.287 168.141 413.491 168.543 413.788 168.87C414.086 169.196 414.466 169.436 414.89 169.563H412.617L413.2 167.708Z" fill="#E5EFF9"/>
<path d="M405.659 137.916C403.273 139.658 403.552 143.881 403.848 146.501C403.979 147.747 404.527 147.99 404.718 150.472C404.718 150.698 403.56 153.772 403.604 153.79C407.906 155.94 405.128 162.201 411.528 162.201C412.342 162.074 413.13 161.815 413.861 161.434C416.072 160.563 418.737 157.682 419.042 155.27C419.12 154.669 418.771 152.117 419.129 151.786C419.729 151.186 420.87 151.299 421.34 150.176C421.625 149.502 421.801 148.788 421.863 148.06C419.608 146.989 416.168 146.528 414.261 145.57C410.36 143.619 407.792 141.843 405.807 138.43C405.72 138.272 405.669 138.096 405.659 137.916Z" fill="#F6C7BD"/>
<g style="mix-blend-mode:multiply" opacity="0.6">
<path d="M405.659 137.916C403.273 139.658 403.552 143.881 403.848 146.501C403.979 147.747 404.527 147.99 404.718 150.472C404.718 150.698 403.56 153.772 403.604 153.79C407.906 155.94 405.128 162.201 411.528 162.201C412.342 162.074 413.13 161.815 413.861 161.434C416.072 160.563 418.737 157.682 419.042 155.27C419.12 154.669 418.771 152.117 419.129 151.786C419.729 151.186 420.87 151.299 421.34 150.176C421.625 149.502 421.801 148.788 421.863 148.06C419.608 146.989 416.168 146.528 414.261 145.57C410.36 143.619 407.792 141.843 405.807 138.43C405.72 138.272 405.669 138.096 405.659 137.916Z" fill="#F6C7BD"/>
</g>
<path d="M418.894 130.844C415.644 130.848 412.43 131.527 409.456 132.839C407.532 133.622 402.734 136.574 403.91 138.542C406.034 142.147 406.914 144.359 411.093 146.378C413.644 147.641 420.723 147.701 422.674 149.617C424.11 151.028 424.415 153.327 425.817 154.694C426.27 155.138 427.002 153.823 427.132 153.588C427.797 152.544 428.36 151.44 428.813 150.288C428.872 150.429 428.978 150.548 429.111 150.623C429.245 150.698 429.4 150.728 429.552 150.705C429.291 152.143 429.16 153.718 428.969 154.424C427.811 158.612 427.228 163.061 429.065 167.171C430.702 170.811 433.644 173.58 434.786 177.498C435.717 181.196 436.133 185.005 436.022 188.817C436.022 189.897 435.229 192.866 436.893 192.056C442.831 189.131 443.571 181.181 442.117 175.844C441.568 173.85 439.505 172.535 439.052 170.41C438.564 168.033 440.01 166.117 440.463 163.906C440.771 161.508 440.641 159.074 440.079 156.722C439.566 154.206 434.045 147.501 431.164 147.894C431.164 147.284 430.902 146.778 430.153 146.762C430.596 144.71 430.58 142.586 430.106 140.542C429.632 138.498 428.711 136.584 427.41 134.937C426.394 133.655 425.098 132.62 423.624 131.911C422.148 131.202 420.532 130.837 418.894 130.844Z" fill="#2C4153"/>
<g style="mix-blend-mode:multiply">
<g style="mix-blend-mode:multiply">
<path d="M411.46 207.443C410.975 207.829 410.423 208.124 409.833 208.314C414.325 206.803 418.593 204.691 422.519 202.036C423.285 199.711 423.79 197.996 423.79 197.996C423.79 197.996 418.426 201.67 411.46 207.443Z" fill="#E5EFF9"/>
</g>
</g>
<path d="M401.072 209.108L401.125 208.994L401.055 209.108H401.072Z" fill="#E5EFF9"/>
<path d="M429.824 175.625C429.824 175.625 418.826 199.135 410.772 201.669C402.718 204.202 395.456 204.029 394.15 203.158C392.844 202.287 393.279 194.686 393.279 194.686L394.29 194.155L394.577 189.34C393.306 189.078 391.913 188.817 391.225 189.279C391.06 189.391 389.944 199.17 389.762 200.258C389.631 201.051 389.587 202.601 390.102 203.236C390.51 205.509 391.164 208.739 401.299 208.739C402.841 208.225 408.56 209.845 411.46 207.441C418.426 201.669 423.79 198.003 423.79 198.003L423.694 198.317C428.221 195.199 436.711 187.328 429.824 175.625Z" fill="#E5EFF9"/>
<g style="mix-blend-mode:multiply">
<path d="M407.766 208.74C405.154 208.974 402.315 208.4 401.305 208.74C401.071 208.818 400.87 209.802 400.609 210.603L407.766 208.74Z" fill="#E5EFF9"/>
</g>
<g style="mix-blend-mode:multiply" opacity="0.4">
<path d="M421.83 149.014C422.013 146.967 421.982 144.907 421.735 142.867C421.038 137.321 418.896 132.715 414.438 131.269C412.734 131.64 411.067 132.164 409.457 132.836C407.533 133.621 402.736 136.572 403.911 138.54C406.036 142.144 406.915 144.356 411.094 146.376C413.332 147.517 419.497 147.621 421.83 149.014Z" fill="#2C4153"/>
</g>
<path d="M429.894 279.088C430.434 282.763 428.153 286.532 429.598 290.121C429.608 290.138 429.622 290.154 429.64 290.164C429.658 290.175 429.678 290.181 429.698 290.181C429.719 290.181 429.74 290.175 429.757 290.164C429.775 290.154 429.789 290.138 429.798 290.121C430.559 288.978 431.094 287.701 431.375 286.359C431.697 284.906 431.855 283.423 431.845 281.936C431.838 281.912 431.824 281.891 431.804 281.876C431.785 281.861 431.761 281.853 431.737 281.853C431.712 281.853 431.687 281.861 431.668 281.876C431.648 281.891 431.634 281.912 431.627 281.936C431.634 283.399 431.479 284.859 431.166 286.289C430.891 287.613 430.365 288.872 429.616 289.998H429.807C429.085 288.257 429.329 286.315 429.66 284.469C430.106 282.674 430.256 280.818 430.103 278.975C430.103 278.836 429.868 278.888 429.894 279.027V279.088Z" fill="black"/>
<path d="M431.374 261.644C431.216 260.545 430.684 259.533 429.867 258.78C429.042 258.043 428.15 257.384 427.203 256.812C426.967 256.655 426.75 257.03 426.985 257.186C428.648 258.293 430.651 259.468 430.938 261.644C430.938 261.915 431.409 261.923 431.374 261.644Z" fill="black"/>
<path d="M433.882 251.008C432.14 249.867 429.947 249.102 428.736 247.317L428.44 247.613C429.642 248.196 430.982 248.196 432.263 248.483C432.319 248.498 432.379 248.49 432.43 248.46C432.481 248.431 432.517 248.383 432.532 248.326C432.547 248.27 432.54 248.21 432.51 248.159C432.481 248.108 432.432 248.071 432.376 248.056C431.14 247.76 429.816 247.778 428.658 247.186C428.474 247.098 428.222 247.29 428.362 247.482C429.616 249.345 431.844 250.094 433.664 251.33C433.89 251.487 434.117 251.113 433.882 250.956V251.008Z" fill="black"/>
<g style="mix-blend-mode:multiply" opacity="0.6">
<path d="M395.622 189.547C395.622 189.494 398.417 180.465 399.253 178.132C400.089 175.798 400.881 169.877 401.134 168.345C401.386 166.813 402.231 161.544 402.231 161.544L403.154 162.198L403.005 161.745C402.37 161.336 401.613 161.353 400.951 162.346C399.392 164.679 399.758 167.526 399.453 170.269C399.139 173.41 398.431 176.499 397.346 179.464C396.405 182.076 394.899 184.444 394.09 187.109C393.798 187.762 393.542 188.431 393.324 189.112C394.107 189.225 394.917 189.417 395.622 189.547Z" fill="#F6C7BD"/>
</g>
<path d="M327.91 207.938C327.014 209.204 326.233 210.548 325.577 211.952C323.615 216.17 321.222 220.173 318.437 223.898C317.514 225.056 314.083 228.4 312.342 226.65C311.471 225.779 308.859 221.052 307.117 222.218C306.082 222.906 307.117 224.456 307.718 225.065C310.044 227.382 311.428 232.519 314.353 233.982C315.833 234.713 317.837 235.532 319.578 235.096C321.537 234.609 323.461 230.882 324.575 229.402C328.546 224.108 337.236 218.831 338.385 211.987C338.777 209.645 338.725 206.563 335.86 205.64C334.474 205.254 333.014 205.218 331.611 205.535C330.154 205.923 328.858 206.765 327.91 207.938Z" fill="#F6C7BD"/>
<path d="M305.822 157.984C307.085 159.002 306.467 166.97 305.509 168.894C304.89 170.121 303.689 171.924 302.226 172.22C301.756 172.316 299.422 172.22 299.152 172.516C298.038 173.631 299.928 177.453 299.196 178.907C297.611 182.086 288.347 180.918 285.909 179.291C285.778 179.203 285.647 171.68 285.647 170.81C285.647 163.069 287.285 154.405 294.982 150.826C296.532 150.104 298.595 149.46 300.354 149.852C304.508 150.791 303.506 156.121 305.822 157.984Z" fill="#F6C7BD"/>
<g style="mix-blend-mode:multiply" opacity="0.4">
<path d="M290.247 161.364L286.241 163.646C285.828 166.012 285.629 168.41 285.649 170.812C285.649 171.683 285.779 179.206 285.91 179.293C286.844 179.828 287.863 180.199 288.923 180.39L290.247 180.468V161.364Z" fill="#F6C7BD"/>
</g>
<path d="M294.263 169.113C302.605 169.113 312.836 161.485 309.519 150.828C307.412 144.105 305.601 145.037 302.361 144.994C301.796 144.113 301.012 143.396 300.085 142.91C299.159 142.424 298.121 142.189 297.076 142.224C277.685 141.711 278.974 168.851 296.205 168.851" fill="#2C4153"/>
<path d="M269.642 201.026L260.43 207.652C260.43 207.652 255.841 200.809 250.121 204.456L247.821 207.521C247.571 205.487 247.863 203.423 248.669 201.539C249.475 199.655 250.766 198.017 252.41 196.794C258.175 192.293 268.318 183.011 268.318 183.011C268.318 183.011 275.284 175.819 285.672 176.785C296.059 177.751 306.29 175.601 313.535 181.809C320.779 188.017 338.229 205.78 338.786 207.992C338.786 207.992 329.696 201.897 325.925 211.344L316.13 202.846C316.13 202.846 313.779 219.12 315.99 226.547C318.202 233.974 322.582 243.561 323.079 254.166C323.435 261.21 321.319 313.297 321.319 313.297C321.319 313.297 311.21 320.776 292.638 319.2C274.065 317.624 267.291 313.227 267.291 313.227L265.785 271.432C265.785 271.432 265.402 245.406 271.113 236.734C276.825 228.062 271.271 209.359 271.271 209.359C271.271 209.359 268.971 203.464 269.642 201.026Z" fill="#486985"/>
<path d="M295.708 160.651C296.23 161.121 295.708 160.136 295.533 159.91C294.868 159.085 293.951 158.501 292.921 158.248C290.227 158.463 287.551 158.861 284.91 159.44C280.897 160.947 277.805 167.494 281.375 171.073C282.925 172.614 284.414 171.5 285.851 172.222C286.356 172.475 287.009 174.025 287.592 174.478C290.021 176.219 295.237 175.766 297.013 173.285C297.649 172.414 297.44 171.195 297.884 170.263C298.807 168.417 301.681 168.06 300.313 164.848C299.347 162.601 297.701 163.105 296.047 162.296C295.586 162.044 295.29 160.276 295.708 160.651Z" fill="#2C4153"/>
<g style="mix-blend-mode:multiply" opacity="0.4">
<path d="M316.562 228.245L307.698 225.041C307.698 225.041 310.405 238.675 320.079 238.737C318.895 234.932 317.589 231.448 316.562 228.245Z" fill="#486985"/>
</g>
<g style="mix-blend-mode:multiply" opacity="0.6">
<path d="M296.066 162.294C296.066 162.294 295.509 159.909 300.298 153.857C301.36 152.549 302.062 150.986 302.334 149.322C302.606 147.659 302.438 145.953 301.848 144.375C301.267 143.681 300.534 143.129 299.707 142.763C298.88 142.396 297.98 142.224 297.075 142.259C278.79 141.771 278.895 165.908 293.471 168.625C294.969 165.377 296.066 162.294 296.066 162.294Z" fill="#2C4153"/>
</g>
<path d="M295.708 160.651C296.23 161.121 295.708 160.136 295.533 159.91C294.868 159.085 293.951 158.501 292.921 158.248C290.227 158.463 287.551 158.861 284.91 159.44C280.897 160.947 277.805 167.494 281.375 171.073C282.925 172.614 284.414 171.5 285.851 172.222C286.356 172.475 287.009 174.025 287.592 174.478C288.376 174.995 289.271 175.321 290.205 175.427C290.97 174.147 291.406 172.693 292.102 171.386C293.597 168.435 294.92 165.4 296.064 162.296C295.586 162.044 295.29 160.276 295.708 160.651Z" fill="#2C4153"/>
<g style="mix-blend-mode:multiply" opacity="0.4">
<path d="M295.708 160.651C296.23 161.121 295.708 160.136 295.533 159.91C294.868 159.085 293.951 158.501 292.921 158.248C290.227 158.463 287.551 158.861 284.91 159.44C280.897 160.947 277.805 167.494 281.375 171.073C282.925 172.614 284.414 171.5 285.851 172.222C286.356 172.475 287.009 174.025 287.592 174.478C288.376 174.995 289.271 175.321 290.205 175.427C290.97 174.147 291.406 172.693 292.102 171.386C293.597 168.435 294.92 165.4 296.064 162.296C295.586 162.044 295.29 160.276 295.708 160.651Z" fill="#2C4153"/>
</g>
<g style="mix-blend-mode:multiply" opacity="0.4">
<g style="mix-blend-mode:multiply" opacity="0.4">
<path d="M250.788 198.274C249.643 199.503 248.781 200.967 248.262 202.565C247.743 204.162 247.58 205.854 247.784 207.521L250.082 204.456C250.454 204.216 250.848 204.012 251.258 203.847C250.861 202.017 250.702 200.144 250.788 198.274Z" fill="#486985"/>
</g>
</g>
<g style="mix-blend-mode:multiply" opacity="0.4">
<g style="mix-blend-mode:multiply" opacity="0.4">
<path d="M314.742 193.366L316.405 203.048L325.982 211.346C327.455 207.645 329.405 205.704 331.651 205.477L314.742 193.366Z" fill="#486985"/>
</g>
</g>
<g style="mix-blend-mode:multiply" opacity="0.4">
<g style="mix-blend-mode:multiply" opacity="0.4">
<path d="M314.742 193.366L316.405 203.048L325.982 211.346C327.455 207.645 329.405 205.704 331.651 205.477L314.742 193.366Z" fill="#486985"/>
</g>
</g>
<g style="mix-blend-mode:multiply" opacity="0.4">
<path d="M306.851 260.181C301.14 256.55 298.449 250.036 297.195 244.508C296.603 241.893 297.027 239.15 298.382 236.836C299.737 234.522 301.921 232.81 304.492 232.048L314.74 229.009L309.751 221.764C308.566 220.043 307.849 218.043 307.672 215.96C307.495 213.878 307.863 211.785 308.741 209.888L311.728 203.409C311.831 203.186 311.888 202.943 311.896 202.697C311.904 202.45 311.861 202.204 311.772 201.975C311.682 201.744 311.548 201.535 311.375 201.358C311.204 201.181 310.998 201.041 310.77 200.945L300.321 196.636C296.09 191.411 292.859 181.746 290.247 177.044L288.218 176.966H287.887C287.148 176.966 286.407 176.879 285.667 176.809C284.927 176.74 284.387 176.722 283.769 176.722H283.273C282.828 176.722 282.401 176.722 281.958 176.783C281.697 176.783 281.444 176.852 281.182 176.879C280.921 176.905 280.548 176.948 280.243 177.001C279.938 177.053 279.371 177.175 279.006 177.271C278.884 177.271 278.754 177.314 278.632 177.349C276.734 177.837 274.905 178.563 273.19 179.509C271.413 180.443 269.773 181.614 268.313 182.991C268.313 182.991 266.868 184.315 264.752 186.204L264.648 186.727C264.648 186.727 268.183 185.804 270.063 191.35L270.935 196.217C270.962 196.364 270.942 196.516 270.878 196.65C270.813 196.785 270.709 196.895 270.578 196.967C265.806 199.509 260.39 207.632 260.39 207.632L269.846 200.971L269.55 201.521C269.254 204.185 271.222 209.357 271.222 209.357C271.222 209.357 276.768 228.068 271.065 236.724C265.362 245.379 265.736 271.5 265.736 271.5L267.243 313.294C267.243 313.294 273.999 317.692 292.59 319.268C296.358 319.599 300.15 319.552 303.909 319.129C304.919 316.063 307.391 310.125 307.391 310.125L311.684 270.333C311.914 268.358 311.583 266.358 310.728 264.562C309.874 262.766 308.53 261.248 306.851 260.181Z" fill="#486985"/>
</g>
<g style="mix-blend-mode:multiply" opacity="0.4">
<path d="M275.349 233.563L277.735 232.771C280.347 230.89 280.556 223.986 280.556 223.986L273.59 225.901C273.59 229.932 272.911 233.903 270.978 236.767L270.769 237.116C271.76 236.932 272.694 236.514 273.49 235.896C274.287 235.278 274.925 234.478 275.349 233.563Z" fill="#486985"/>
</g>
<g style="mix-blend-mode:multiply" opacity="0.4">
<path d="M270.613 196.987C270.221 197.202 269.84 197.437 269.473 197.692C269.713 197.705 269.95 197.644 270.154 197.518C270.358 197.392 270.518 197.206 270.613 196.987Z" fill="#486985"/>
</g>
<g style="mix-blend-mode:multiply" opacity="0.4">
<path d="M264.721 186.221L264.617 186.744C264.617 186.744 268.152 185.821 270.033 191.376L270.903 196.183C272.191 192.473 271.007 184.663 270.38 181.24C269.632 181.77 268.921 182.352 268.256 182.982C268.256 182.982 266.871 184.332 264.721 186.221Z" fill="#486985"/>
</g>
<path d="M281.096 219.692C280.678 218.499 278.484 221.259 277.848 221.921C275.48 224.29 274.191 225.613 270.882 223.95C262.428 219.727 264.065 207.536 255.793 203.679C253.799 202.748 248.375 203.575 247.956 206.248C247.539 208.921 248.871 211.812 250.403 213.998C254.757 220.24 260.025 224.202 265.789 229.009C267.53 230.463 267.948 233.075 270.082 234.146C273.921 236.062 273.312 232.3 274.009 231.951C274.705 231.603 275.314 232.082 275.985 231.578C277.474 230.463 276.951 228.739 277.927 227.441C280.069 224.594 282.202 222.887 281.096 219.692Z" fill="#F6C7BD"/>
<path d="M327.906 207.94C327.009 209.205 326.229 210.548 325.572 211.954C323.61 216.171 321.217 220.174 318.432 223.9C317.509 225.058 314.079 228.401 312.337 226.651C311.467 225.781 308.855 221.053 307.113 222.22C306.077 222.908 307.113 224.457 307.714 225.067C310.039 227.383 311.423 232.521 314.349 233.983C315.829 234.714 317.832 235.533 319.573 235.097C321.532 234.61 323.456 230.883 324.571 229.403C328.541 224.109 337.232 218.832 338.381 211.989C338.773 209.647 338.721 206.564 335.855 205.641C334.47 205.255 333.009 205.22 331.606 205.536C330.149 205.924 328.853 206.767 327.906 207.94Z" fill="#F6C7BD"/>
<g style="mix-blend-mode:multiply" opacity="0.4">
<path d="M270.091 234.148C270.713 234.52 271.43 234.702 272.154 234.67C272.428 233.998 272.657 233.309 272.842 232.606C268.98 228.096 264.833 223.838 260.425 219.859C255.757 215.628 252.558 210.019 251.292 203.847C250.909 204.003 248.767 202.105 248.366 202.358L247.905 207.391C248.09 209.788 248.961 212.082 250.413 213.999C254.766 220.242 260.034 224.204 265.798 229.01C267.548 230.464 267.957 233.077 270.091 234.148Z" fill="#F6C7BD"/>
</g>
<g style="mix-blend-mode:multiply" opacity="0.4">
<path d="M327.906 207.941C327.009 209.207 326.229 210.551 325.572 211.955C323.61 216.173 321.217 220.176 318.432 223.902C317.509 225.06 314.079 228.404 312.337 226.653C311.467 225.782 308.855 221.055 307.113 222.221C306.077 222.909 307.113 224.459 307.714 225.069C309.081 226.427 310.126 228.769 311.354 230.763C311.925 231.699 312.609 232.562 313.391 233.332C313.683 233.586 314.005 233.806 314.349 233.985C314.732 234.167 315.159 234.368 315.611 234.551C317.196 234.733 318.467 233.236 319.329 230.763C320.862 226.357 325.982 222.134 331.65 216.135C335.873 211.659 331.65 205.504 331.65 205.504C330.172 205.893 328.859 206.748 327.906 207.941Z" fill="#F6C7BD"/>
</g>
<path d="M361.615 127.765C360.875 128.932 359.769 129.994 359.168 131.196C358.925 131.692 359.673 133.094 359.804 133.625C360.03 134.496 357.026 137.857 356.268 138.24C355.737 138.501 358.01 139.79 357.897 140.173C357.156 142.393 356.564 147.034 357.897 149.194C358.767 150.683 361.624 148.784 361.955 149.115C362.012 150.309 361.971 151.506 361.833 152.694C361.833 152.737 360.57 152.737 361.04 153.208C363.975 156.142 369.216 156.263 372.917 154.879C374.152 154.385 375.335 153.773 376.452 153.051C377.219 152.645 378.007 152.279 378.812 151.954C378.812 151.954 375.625 152.38 375.416 151.536C374.728 148.758 376.469 146.686 377.602 144.431C379.525 140.59 380.936 129.08 377.21 126.145C374.362 123.908 369.713 123.533 366.36 124.596C365.02 125.05 363.789 125.779 362.747 126.737C362.34 127.046 361.961 127.39 361.615 127.765Z" fill="#F6C7BD"/>
<g style="mix-blend-mode:multiply" opacity="0.4">
<path d="M369.983 144.203C368.102 140.886 368.285 129.837 368.511 124.177C367.767 124.261 367.033 124.413 366.317 124.629C364.976 125.084 363.745 125.814 362.703 126.771C362.312 127.079 361.948 127.421 361.615 127.791C360.875 128.957 359.769 130.02 359.168 131.221C358.925 131.717 359.673 133.119 359.804 133.65C360.03 134.521 357.026 137.882 356.268 138.265C355.737 138.526 358.01 139.815 357.897 140.198C357.156 142.418 356.564 147.06 357.897 149.219C358.767 150.708 361.624 148.81 361.955 149.141C362.012 150.335 361.971 151.532 361.833 152.719C361.833 152.763 360.57 152.763 361.04 153.233C362.248 154.381 363.758 155.16 365.394 155.479C363.687 148.226 372.551 148.731 369.983 144.203Z" fill="#F6C7BD"/>
</g>
<g style="mix-blend-mode:multiply" opacity="0.4">
<path d="M370.321 144.97C370.321 144.97 363.285 148.679 360.577 149.436C360.577 149.436 368.797 144.996 369.615 143.403L370.321 144.97Z" fill="#F6C7BD"/>
</g>
<path d="M363.354 120.542C362.658 120.841 362.04 121.297 361.549 121.874C361.059 122.451 360.708 123.133 360.524 123.868C358.921 129.458 366.54 127.107 366.81 129.493C366.824 130.939 366.6 132.377 366.148 133.751C366.148 133.925 365.4 135.492 365.556 135.553C366.845 136.198 368.5 132.462 368.5 138.313C368.5 139.837 366.906 145.035 368.351 146.472C368.456 146.576 368.952 146.542 369.083 146.542C371.329 146.542 373.498 147.203 375.701 147.203C375.753 147.203 376.153 147.247 376.179 147.203C378.791 143.294 385.844 133.568 385.182 128.918C384.138 121.613 372.723 121.752 367.463 121.752C366.369 121.866 365.263 121.78 364.198 121.5C363.589 121.264 364.224 120.246 363.354 120.542Z" fill="#2C4153"/>
<path d="M333.333 144.186C334.256 143.647 335.075 142.994 336.006 142.445C337.417 141.531 339.577 140.294 341.283 140.172C343.582 140.007 346.795 140.913 348.815 139.389C351.331 137.499 354.536 134.252 353.168 132.58C352.925 132.267 352.071 132.58 351.845 132.736C350.975 133.363 346.107 136.611 347.579 134.069C349.276 131.117 354.144 131.039 356.547 131.456C356.974 131.517 357.356 130.586 356.93 130.237C356.652 130.002 355.545 129.967 355.894 129.881C356.242 129.794 359.002 129.802 358.419 128.914C358.071 128.392 356.582 128.331 356.382 127.939C356.303 127.765 358.732 127.294 357.957 126.667C356.112 125.196 351.044 125.736 348.98 126.294C345.21 127.294 343.756 131.988 340.848 134.13C338.157 136.141 333.307 136.951 330.068 137.691C328.989 137.944 326.917 138.17 326.124 138.962C325.802 139.284 326.646 140.321 326.794 140.556C327.856 142.254 329.546 143.464 330.634 145.013C331.47 146.12 333.055 144.379 333.333 144.186Z" fill="#F6C7BD"/>
<g style="mix-blend-mode:multiply" opacity="0.4">
<path d="M349.006 126.223C345.236 127.224 343.782 131.918 340.874 134.059C338.183 136.071 333.333 136.881 330.094 137.621C329.014 137.874 326.942 138.1 326.15 138.892C325.828 139.214 326.672 140.251 326.82 140.486C327.082 140.884 327.374 141.262 327.69 141.617L328.248 141.086C328.248 141.086 340.804 136.236 342.328 136.089C343.851 135.94 345.367 130.978 345.367 130.978C345.367 130.978 350.747 124.961 356.433 127.843C356.433 127.843 356.503 127.755 356.642 127.704L358.122 126.702C358.093 126.652 358.054 126.609 358.009 126.571C356.137 125.126 351.113 125.666 349.006 126.223Z" fill="#F6C7BD"/>
</g>
<path d="M350.992 155.194C354.031 154.166 354.475 154.523 357.958 153.539C358.471 153.4 361.44 152.721 361.44 152.721C362.172 153.371 362.963 153.955 363.8 154.462C365.896 155.267 368.166 155.506 370.383 155.159C372.125 154.915 378.394 151.676 378.942 151.929C382.905 154.06 386.521 156.778 389.67 159.991C391.411 161.733 393.936 163.083 394.894 165.041C398.429 172.112 393.335 181.541 392.107 188.899C391.402 193.166 391.236 197.536 390.523 201.829C389.129 210.171 393.231 224.163 387.536 229.858C386.796 230.607 389.208 235.152 388.032 236.319C384.636 239.723 358.306 240.054 353.334 238.809C351.723 238.409 346.133 238.765 344.993 237.616C344.166 236.745 346.029 231.233 345.289 230.86C341.884 229.117 342.998 224.233 342.998 220.715C342.998 211.016 344.287 201.272 344.287 191.581C344.287 188.577 342.467 182.003 343.791 179.391C344.888 177.197 345.89 174.68 347.179 172.425C348.293 170.466 350.757 158.729 350.757 156.117C350.818 155.586 350.426 155.394 350.992 155.194Z" fill="#E7EEF7"/>
<g style="mix-blend-mode:multiply" opacity="0.6">
<path d="M352.575 223.989C352.819 220.724 356.189 189.891 356.189 189.891C356.189 189.891 360.743 164.118 358.522 161.367C356.302 158.615 357.982 153.53 357.982 153.53C354.5 154.514 354.029 154.157 351.017 155.185C350.451 155.385 350.843 155.576 350.843 156.055C350.843 158.667 348.378 170.405 347.264 172.364C345.975 174.61 344.974 177.127 343.877 179.33C342.553 181.942 344.373 188.551 344.373 191.52C344.373 201.211 343.085 210.955 343.085 220.654C343.085 224.137 341.97 229.091 345.375 230.798C346.115 231.172 344.252 236.728 345.078 237.555C346.219 238.704 351.809 238.347 353.42 238.747L356.215 233.262C356.215 233.262 352.34 227.263 352.575 223.989Z" fill="#E7EEF7"/>
</g>
<path d="M387.143 284.166C386.951 283.199 389.371 263.608 389.371 261.901C389.371 260.195 388.832 239.367 388.832 239.367L387.09 236.973C381.195 239.759 358.025 239.968 353.393 238.81C351.922 238.444 347.098 238.705 345.426 237.87L345.017 238.052L342.24 244.435L349.04 277.601V285.751C349.04 285.751 348.943 288.363 352.261 291.445L352.078 297.714C352.078 297.714 350.171 301.798 351.408 305.028L351.338 347.259C351.338 347.259 354.273 352.317 369.789 348.443L369.981 274.432L372.793 296.348L374.926 343.575C374.926 343.575 380.934 353.954 392.193 343.088L389.763 291.715C389.763 291.715 387.343 285.132 387.143 284.166Z" fill="#486985"/>
<path d="M326.681 139.197C326.428 138.501 330.495 144.195 331.287 145.788C332.324 147.86 324.905 147.608 328.292 149.646C328.954 150.037 343.73 152.659 345.898 153.129C347.692 153.486 351.122 154.365 351.88 156.289C354.205 162.106 350.469 177.517 344.287 179.99C343.713 180.225 344.461 185.284 343.713 181.732C343.469 180.565 342.615 176.507 342.049 175.524C340.726 173.207 336.633 171.222 334.274 170.177C327.404 167.121 313.298 161.522 311.905 153.146C310.869 146.946 314.604 146.015 318.113 142.506C318.984 141.635 318.34 140.381 320.359 139.51C321.117 139.188 324.792 136.524 325.706 137.438C326.089 137.769 327.474 141.356 326.681 139.197Z" fill="#D0DEEF"/>
<path d="M400.091 176.747C400.091 176.668 400.029 176.599 400.012 176.521C399.995 176.442 400.012 176.163 400.012 175.99C399.472 171.679 399.681 168.458 395.589 166.612C397.774 173.464 393.307 182.075 392.167 188.902C391.461 193.168 391.296 197.54 390.582 201.832C389.659 207.352 391.148 215.346 390.582 221.772C393.568 220.3 396.442 216.199 398.01 214.397C402.894 208.816 401.161 184.226 400.091 176.747Z" fill="#D0DEEF"/>
<g style="mix-blend-mode:multiply" opacity="0.4">
<path d="M390.609 221.772C393.595 220.3 396.468 216.199 398.036 214.397C398.214 214.191 398.377 213.973 398.523 213.744C397.818 210.069 396.904 205.376 396.19 202.346C394.866 196.739 397.374 167.717 397.374 167.717C396.849 167.268 396.263 166.895 395.633 166.612C397.818 173.464 393.351 182.075 392.21 188.902C391.506 193.168 391.34 197.54 390.626 201.832C389.66 207.352 391.166 215.346 390.609 221.772Z" fill="#D0DEEF"/>
</g>
<g style="mix-blend-mode:multiply" opacity="0.6">
<path d="M366.899 135.602C366.559 135.602 367.43 135.454 367.56 136.011C367.604 136.15 368.005 139.45 368.275 138.902C368.623 138.206 368.998 135.358 368.275 134.81C367.552 134.261 366.159 135.48 366.332 135.68C366.507 135.88 366.951 135.602 366.899 135.602Z" fill="#F6C7BD"/>
</g>
<g style="mix-blend-mode:multiply" opacity="0.4">
<path d="M345.017 238.052L342.24 244.434L349.04 277.6V285.75C349.04 285.75 348.943 288.362 352.261 291.445L352.078 297.714C352.078 297.714 350.171 301.798 351.408 305.028L351.338 347.258C351.338 347.258 352.662 349.53 358.209 349.87C361.447 336.025 358.016 311.01 357.616 306.334C357.19 301.406 357.616 288.049 357.616 288.049L358.992 267.152L365.418 265.706C365.69 265.646 365.934 265.498 366.113 265.285C366.292 265.072 366.395 264.806 366.407 264.527C366.419 264.249 366.339 263.975 366.179 263.747C366.019 263.519 365.788 263.351 365.522 263.268L361.239 261.901C357.617 260.02 357.198 256.163 357.477 252.097C357.982 244.634 353.393 238.845 353.393 238.845C351.922 238.479 347.098 238.74 345.426 237.904L345.017 238.052Z" fill="#486985"/>
</g>
<g style="mix-blend-mode:multiply" opacity="0.4">
<path d="M322.048 153.538C320.02 151.066 327.403 148.784 327.412 148.784C327.412 148.784 323.058 145.074 321.7 142.271C320.342 139.467 326.054 141.313 326.054 141.313L326.629 139.302C326.375 138.638 326.06 138 325.688 137.395C324.774 136.481 321.099 139.136 320.342 139.467C318.321 140.338 319.001 141.557 318.095 142.463C314.613 145.946 310.851 146.903 311.887 153.103C313.28 161.479 327.386 167.078 334.256 170.134C336.616 171.179 340.708 173.164 342.032 175.48C342.598 176.482 343.451 180.522 343.694 181.689C344.443 185.259 343.694 180.2 344.269 179.947C350.452 177.474 354.187 162.063 351.862 156.246C351.694 155.853 351.441 155.502 351.121 155.219C351.121 155.219 324.121 156.02 322.048 153.538Z" fill="#D0DEEF"/>
</g>
<g style="mix-blend-mode:multiply" opacity="0.4">
<path d="M367.464 121.742C366.369 121.855 365.263 121.77 364.198 121.489C363.589 121.236 364.198 120.218 363.328 120.514C362.632 120.813 362.014 121.269 361.524 121.846C361.032 122.423 360.682 123.105 360.498 123.84C358.896 129.43 366.515 127.079 366.785 129.465C366.798 130.911 366.574 132.349 366.123 133.723C366.123 133.897 365.374 135.464 365.531 135.525C366.82 136.17 368.474 132.434 368.474 138.286C368.474 139.809 366.88 145.007 368.326 146.444C368.43 146.548 368.927 146.513 369.057 146.513C369.449 146.513 372.357 146.871 372.74 146.897C373.045 146.252 371.87 146.392 370.999 142.238C370.085 137.885 367.202 128.463 372.296 121.785L367.464 121.742Z" fill="#2C4153"/>
</g>
<g style="mix-blend-mode:multiply" opacity="0.4">
<g style="mix-blend-mode:multiply" opacity="0.4">
<path d="M386.665 284.567C385.794 286.927 384.053 288.921 383.182 291.245C383.177 291.273 383.182 291.302 383.196 291.326C383.21 291.35 383.233 291.368 383.26 291.376C385.229 291.681 386.744 290.227 387.736 288.712C387.814 288.598 387.632 288.485 387.553 288.607C386.595 290.017 385.176 291.455 383.321 291.167L383.391 291.298C384.262 288.938 386.003 286.944 386.874 284.628C386.926 284.498 386.717 284.436 386.665 284.567Z" fill="#486985"/>
</g>
</g>
<g style="mix-blend-mode:multiply" opacity="0.4">
<g style="mix-blend-mode:multiply" opacity="0.4">
<path d="M353.161 292.224C354.363 291.614 355.443 290.796 356.644 290.187L356.496 290.039C355.052 292.859 353.787 295.767 352.709 298.746C352.656 298.876 352.874 298.937 352.918 298.807C353.992 295.829 355.251 292.921 356.688 290.099C356.698 290.078 356.702 290.054 356.697 290.03C356.693 290.006 356.681 289.985 356.664 289.968C356.646 289.952 356.624 289.941 356.6 289.938C356.576 289.936 356.552 289.94 356.531 289.952C355.338 290.561 354.25 291.371 353.048 291.98C352.926 292.041 353.048 292.233 353.161 292.172V292.224Z" fill="#486985"/>
</g>
</g>
<g style="mix-blend-mode:multiply" opacity="0.4">
<path d="M385.115 347.67L382.86 298.221L379.499 288.052L383.731 262.017C383.731 262.017 377.749 257.576 374.858 251.333C374.858 251.333 376.6 259.021 374.858 263.079L369.982 274.451L372.794 296.367L374.928 343.594C374.928 343.594 378.436 349.663 385.115 347.67Z" fill="#486985"/>
</g>
<path d="M227.323 156.717C223.692 156.812 220.27 158.101 216.709 159.076L216.534 159.224L218.006 158.884C217.365 158.984 216.744 159.187 216.169 159.485C214.775 160.539 210.501 163.743 207.723 165.398C205.996 166.337 204.467 167.603 203.221 169.124L200.853 189.429C200.853 189.429 197.222 213.531 199.111 215.786C201.001 218.041 210.561 218.398 210.561 218.398L208.298 234.175V238.686C208.298 238.686 215.011 243.501 226.043 244.903C236.544 246.235 250.162 238.642 251.467 237.937C250.954 234.158 248.908 230.971 247.61 227.088C246.992 225.233 245.468 218.929 247.044 217.353C251.259 216.892 256.004 212.782 256.004 212.782C257.038 211.627 257.857 210.298 258.424 208.855C259.174 206.635 255.194 201.698 255.194 201.698L252.748 194.01C252.748 194.01 251.877 176.16 251.982 173.625C251.965 171.953 251.518 170.313 250.684 168.863C251.024 167.121 249.282 165.302 249.282 165.302L239.539 159.772L239.33 159.25C237.101 158.214 234.018 157.961 231.72 157.309C230.293 156.887 228.81 156.687 227.323 156.717Z" fill="white"/>
<path d="M247.606 227.101C247.484 226.727 247.318 226.161 247.153 225.499C246.404 224.811 245.812 224.811 245.525 225.899C244.184 231.028 242.086 233.353 242.086 233.353L234.624 228.999L229.294 215.782L226.317 191.219L231.715 184.541C231.715 184.541 233.962 167.361 232.316 159.29C228.963 158.845 225.742 158.462 225.011 158.506C223.767 158.679 222.535 158.924 221.319 159.237C220.631 164.662 218.175 181.876 214.998 179.447C212.176 177.27 209.494 170.418 209.442 164.244C208.833 164.644 208.249 165.019 207.701 165.341C205.974 166.281 204.445 167.547 203.199 169.067L200.831 189.373C200.831 189.373 197.2 213.475 199.09 215.729C200.979 217.985 210.54 218.341 210.54 218.341L208.275 234.119V238.629C208.275 238.629 214.989 243.444 226.021 244.846C236.521 246.179 250.14 238.586 251.446 237.881C250.949 234.145 248.903 230.968 247.606 227.101Z" fill="#E5EFF9"/>
<path d="M238.244 128.425C238.801 129.888 242.215 134.633 241.553 135.991C240.43 138.299 240.891 138.133 241.762 139.788C242.493 141.181 242.093 147.006 241.518 149.296C241.118 150.916 238.514 150.115 237.722 150.907C236.93 151.699 238.149 154.39 237.304 155.26C237.251 155.304 233.499 153.319 233.02 153.171C231.923 152.84 228.449 153.24 227.752 152.544C227.36 152.144 227.752 150.219 227.682 149.618C227.544 147.006 226.812 144.394 227.265 141.782C228.044 137.792 230.145 134.182 233.229 131.533C234.229 130.61 235.341 129.814 236.538 129.165C236.921 128.913 238.244 128.417 238.244 128.425Z" fill="#F6C7BD"/>
<path d="M238.012 128.183C239.91 129.393 238.795 135.601 238.795 137.76C238.795 138.135 239.161 140.137 238.865 140.442C238.406 140.017 237.986 139.551 237.611 139.049C237.409 138.766 237.135 138.541 236.817 138.398C236.5 138.255 236.15 138.198 235.804 138.233C235.457 138.269 235.126 138.395 234.844 138.599C234.563 138.804 234.34 139.079 234.198 139.398C233.78 140.268 234.642 141.87 234.407 142.358C233.344 144.483 234.25 147.252 232.936 149.219C232.23 150.29 224.872 153.355 223.845 152.328C220.362 148.801 214.529 138.857 215.025 133.816C215.356 130.577 216.461 125.979 220.954 123.751C226.048 121.225 231.621 120.172 236.079 122.601C237.968 123.637 239.213 123.802 239.213 125.945C239.213 126.641 238.107 126.615 238.029 127.303C238.012 127.46 237.846 128.078 238.012 128.183Z" fill="#2C4153"/>
<path d="M200.978 216.874C201.335 221.375 204.217 227.836 206.124 230.883C206.864 232.067 207.473 233.426 208.248 234.584H208.292V234.148L210.556 218.389C210.556 218.389 204.374 218.162 200.978 216.874Z" fill="#F6C7BD"/>
<path d="M251.31 237.258C251.31 237.485 251.423 237.694 251.458 237.92C250.152 238.66 236.534 246.252 226.033 244.886C215.532 243.519 209.237 239.296 208.558 238.79C206.111 245.651 206.712 255.561 206.712 255.561L208.052 287.438C207.221 288.519 206.666 289.786 206.433 291.129C205.867 293.681 206.076 299.436 206.076 299.436C202.079 308.231 205.283 319.463 205.283 319.463C206.264 323.155 206.736 326.963 206.686 330.782C206.416 336.111 207.556 338.192 207.556 338.192L207.008 342.311C216.133 345.794 221.279 341.318 221.279 341.318C221.279 341.318 221.07 335.92 221.07 335.388C221.07 334.857 220.269 329.459 220.469 327.865C220.669 326.272 220.983 323.433 220.983 323.433V300.96C220.983 300.96 223.064 297.564 223.386 295.152C223.541 293.355 223.412 291.545 223.003 289.789C224.51 285.367 225.732 280.853 226.66 276.275C227.574 270.921 229.394 260.872 229.394 260.872C229.394 260.872 228.819 287.386 228.819 288.169C228.819 288.953 227.444 293.977 227.905 296.198C228.384 298.228 228.647 300.302 228.689 302.388C228.689 304.547 227.966 304.756 228.784 312.358C229.603 319.959 230.648 346.046 230.648 346.046C241.097 348.405 246.791 342.224 246.791 342.224L245.921 334.683C245.921 334.683 244.283 318.819 244.24 313.786C244.196 308.753 242.847 309.789 244.24 305.949C245.074 303.897 245.294 301.647 244.875 299.471L245.641 296.554L245.137 289.405L245.807 282.84C245.807 282.84 247.548 276.449 249.934 266.95C252.32 257.45 252.329 237.45 252.329 237.45L251.31 237.258Z" fill="#2C4153"/>
<g style="mix-blend-mode:multiply">
<g style="mix-blend-mode:multiply">
<path d="M201.875 210.463C204.695 211.873 208.578 214.668 211.844 214.668L210.381 212.561L201.875 210.463Z" fill="#E5EFF9"/>
</g>
<g style="mix-blend-mode:multiply">
<path d="M241.831 210.401C241.831 207.71 239.175 203.958 238.923 200.91C238.462 195.398 240.778 190.331 240.778 184.994L238.052 187.127C238.22 189.977 238.22 192.836 238.052 195.686C237.765 200.04 237.129 203.34 242.084 210.332C244.182 213.301 253.194 205.638 254.839 202.338" fill="#E5EFF9"/>
</g>
<g style="mix-blend-mode:multiply">
<path d="M241.831 210.401C241.831 207.71 239.175 203.958 238.923 200.91C238.462 195.398 240.778 190.331 240.778 184.994L238.052 187.127C238.22 189.977 238.22 192.836 238.052 195.686C237.765 200.04 237.129 203.34 242.084 210.332C244.182 213.301 253.194 205.638 254.839 202.338" fill="#E5EFF9"/>
</g>
<g style="mix-blend-mode:multiply">
<path d="M240.778 184.994C240.778 188.312 239.907 191.525 239.315 194.807C239.167 196.914 239.019 199.091 238.923 200.902C239.15 203.61 241.274 206.884 241.736 209.462C241.918 209.714 242.084 209.949 242.232 210.141L245.715 207.973C245.567 205.683 244.905 195.73 244.678 189.687C244.417 182.844 246.847 169.94 246.847 169.94C244.47 169.94 241.309 181.355 240.273 185.352L240.778 184.994Z" fill="#E5EFF9"/>
</g>
<g style="mix-blend-mode:multiply">
<path d="M247.875 209.207C245.915 210.504 244.017 211.297 242.842 210.896L242.929 211.001L240.987 211.628L243.599 217.583C245.34 218.803 251.436 216.286 251.436 216.286L247.848 209.207H247.875Z" fill="#E5EFF9"/>
</g>
</g>
<g style="mix-blend-mode:multiply">
<path d="M213.944 161.137C213.944 161.137 223.348 158.664 225.01 158.525C226.674 158.385 240.988 160.518 240.988 160.518L240.344 156.67L231.454 155.19H221.876C221.876 155.19 214.283 158.794 213.944 161.137Z" fill="#E5EFF9"/>
</g>
<g style="mix-blend-mode:multiply">
<path d="M213.944 161.137C213.944 161.137 223.348 158.664 225.01 158.525C226.674 158.385 240.988 160.518 240.988 160.518L240.344 156.67L231.454 155.19H221.876C221.876 155.19 214.283 158.794 213.944 161.137Z" fill="#E5EFF9"/>
</g>
<g style="mix-blend-mode:multiply">
<path d="M204.706 171.692C207.318 171.692 211.228 169.167 214.04 168.628C223.531 166.817 234.52 167.13 243.253 171.501" stroke="#E5EFF9" stroke-width="0.75" stroke-miterlimit="10"/>
</g>
<g style="mix-blend-mode:multiply">
<path d="M249.496 168.024C248.268 168.024 244.698 170.549 244.698 171.916" stroke="#E5EFF9" stroke-width="0.75" stroke-miterlimit="10"/>
</g>
<path d="M214.858 159.595C220.561 158.324 225.611 155.521 231.715 157.262C234.327 158.01 238.062 158.132 240.274 159.648C241.101 159.973 241.955 160.226 242.825 160.405C243.278 159.534 242.163 158.28 241.85 157.532C239.647 152.246 242.477 154.684 235.998 152.438C233.917 151.715 221.78 151.228 219.768 152.734C218.645 153.605 216.956 153.379 216.216 154.606C215.685 155.477 215.163 156.348 214.701 157.262C214.215 158.233 213.671 159.175 213.072 160.082C211.705 162.138 216.555 158.89 218.001 158.89" fill="white"/>
<g style="mix-blend-mode:multiply">
<path d="M204.479 188.404C204.487 189.287 204.61 190.164 204.844 191.016L204.479 188.404Z" fill="#E5EFF9"/>
</g>
<g style="mix-blend-mode:multiply">
<path d="M205.742 198.425C204.341 195.437 203.13 193.365 203.13 193.365L204.454 188.402L202.433 175.62L200.823 189.429C200.823 189.429 197.192 213.531 199.081 215.787C199.9 216.771 202.172 217.389 204.479 217.78L205.742 217.964C205.159 215.351 205.629 201.725 205.742 198.425Z" fill="#E5EFF9"/>
</g>
<g style="mix-blend-mode:multiply">
<path d="M210.384 214.673C210.244 214.673 210.332 213.385 210.323 213.245C210.044 209.945 209.827 206.637 209.574 203.337C209.165 197.947 204.498 193.759 204.498 188.404L203.175 193.367C203.175 193.367 210.793 206.724 210.384 214.673Z" fill="#E5EFF9"/>
</g>
<path d="M235.998 152.441C233.917 151.718 221.78 151.231 219.768 152.737C219.167 153.11 218.508 153.382 217.818 153.538C217.818 153.538 219.768 156.525 221.527 157.691L222.076 157.57C224.709 156.758 227.49 156.541 230.217 156.934L230.522 156.978H230.609C230.984 157.036 231.354 157.127 231.715 157.248L236.878 152.72L235.998 152.441Z" fill="#E5EFF9"/>
<g style="mix-blend-mode:multiply" opacity="0.4">
<path d="M205.837 217.971C204.183 217.772 202.556 217.405 200.978 216.874C201.335 221.375 204.217 227.836 206.124 230.883C206.864 232.067 207.473 233.426 208.248 234.584H208.292V234.148L209.119 228.367C207.625 225.041 206.522 221.552 205.837 217.971Z" fill="#F6C7BD"/>
</g>
<g style="mix-blend-mode:multiply" opacity="0.6">
<path d="M227.903 151.749C228.965 151.382 230.003 150.948 231.011 150.452C230.541 143.198 225.551 134.675 223.985 132.985C220.214 128.937 222.174 123.155 222.174 123.155C221.764 123.337 221.355 123.521 220.955 123.721C216.462 125.95 215.355 130.547 215.024 133.786C214.546 138.653 219.927 148.075 223.471 151.897C224.803 151.784 226.353 151.74 227.903 151.749Z" fill="#2C4153"/>
</g>
<g style="mix-blend-mode:multiply" opacity="0.4">
<path d="M225.013 254.085C224.081 252.039 223.794 247.903 223.767 244.56C218.367 243.703 213.196 241.764 208.565 238.856C206.118 245.718 206.719 255.626 206.719 255.626L208.059 287.503C207.229 288.585 206.673 289.852 206.44 291.195C205.875 293.747 206.083 299.502 206.083 299.502C202.086 308.296 205.291 319.529 205.291 319.529C206.271 323.221 206.743 327.029 206.693 330.848C206.423 336.177 207.563 338.258 207.563 338.258L207.015 342.376C216.14 345.86 221.286 341.384 221.286 341.384C221.286 341.384 221.286 341.088 221.286 340.626C221.147 337.335 220.415 324.022 217.855 315.941C214.878 306.668 218.509 293.302 219.963 285.623C221.417 277.943 229.218 262.044 229.236 262.009C229.236 262.009 226.598 257.568 225.013 254.085Z" fill="#2C4153"/>
</g>
<path d="M222.748 289.428C220.867 291.309 218.786 293.146 216.122 293.782L216.244 293.938C218.308 291.004 220.859 288.462 222.922 285.527C223.001 285.406 222.809 285.301 222.731 285.414C220.667 288.349 218.116 290.9 216.052 293.834C216 293.912 216.096 294.008 216.175 293.991C218.882 293.372 220.998 291.518 222.905 289.637C223.001 289.533 222.844 289.385 222.748 289.48V289.428Z" fill="black"/>
<path d="M207.963 287.566C208.485 287.957 209.008 288.332 209.504 288.75C209.998 289.162 210.441 289.629 210.828 290.143C210.914 290.248 211.106 290.143 211.019 290.029C210.621 289.502 210.166 289.02 209.661 288.593C209.155 288.167 208.607 287.775 208.076 287.383C207.963 287.296 207.858 287.487 207.963 287.566Z" fill="black"/>
<g style="mix-blend-mode:multiply" opacity="0.4">
<path d="M251.466 237.919C250.159 238.659 236.542 246.252 226.04 244.885C224.839 244.729 223.698 244.536 222.558 244.31C221.757 246.836 223.768 251.659 224.97 254.063C225.919 255.969 227.12 262.979 227.974 268.559C228.697 264.485 229.358 260.836 229.358 260.836C229.358 260.836 228.783 287.35 228.783 288.133C228.783 288.917 227.408 293.941 227.869 296.162C228.348 298.192 228.611 300.267 228.653 302.352C228.653 304.512 227.93 304.721 228.748 312.322C229.567 319.924 230.612 346.01 230.612 346.01C241.061 348.37 246.755 342.188 246.755 342.188V342.092L243.22 327.133L240.503 304.59L241.905 300.167L240.991 296.493V288.769C240.991 288.769 245.214 261.159 251.901 251.198C252.328 243.901 252.319 237.484 252.319 237.484L251.343 237.257C251.378 237.484 251.431 237.702 251.466 237.919Z" fill="#2C4153"/>
</g>
<path d="M255.785 214.951L256.002 212.765C255.95 212.765 251.248 216.866 247.069 217.337C246.697 220.592 246.882 223.887 247.617 227.079C249.29 232.113 252.25 235.961 251.457 241.464C251.24 243.04 249.01 252.34 250.587 253.123C252.972 254.307 251.614 245.748 253.487 247.62C255.837 249.962 250.613 257.537 252.067 258.513C254.906 260.402 259.825 253.654 259.825 251.408C259.808 238.721 255.785 228.212 255.785 214.951Z" fill="#F6C7BD"/>
<g style="mix-blend-mode:multiply" opacity="0.4">
<path d="M255.912 246.585C255.616 243.276 253.874 237.12 253.299 232.775C252.725 228.43 251.428 216.292 251.227 216.075L251.097 215.996C249.828 216.673 248.452 217.126 247.03 217.337C246.658 220.593 246.844 223.887 247.578 227.08C249.251 232.114 252.211 235.962 251.419 241.465C251.201 243.041 248.972 252.341 250.548 253.124C252.934 254.308 251.575 245.748 253.448 247.621C255.737 249.902 250.836 257.138 251.95 258.409C252.082 258.382 252.204 258.314 252.298 258.218C253.439 256.911 256.199 249.894 255.912 246.585Z" fill="#F6C7BD"/>
</g>
<path d="M241.399 299.883C239.917 301.221 238.234 302.317 236.409 303.13C236.314 303.13 236.358 303.295 236.409 303.33C237.614 303.706 238.878 303.853 240.136 303.766C240.16 303.759 240.181 303.744 240.196 303.725C240.21 303.706 240.218 303.681 240.218 303.656C240.218 303.632 240.21 303.608 240.196 303.589C240.181 303.569 240.16 303.555 240.136 303.548C238.898 303.634 237.656 303.49 236.471 303.121V303.321C238.308 302.499 240.004 301.391 241.495 300.039C241.516 300.019 241.528 299.992 241.529 299.964C241.529 299.935 241.519 299.907 241.499 299.887C241.479 299.866 241.452 299.854 241.424 299.853C241.395 299.852 241.367 299.863 241.347 299.883H241.399Z" fill="black"/>
<path d="M229.772 261.926C230.702 261.259 231.742 260.763 232.846 260.463C233.962 260.205 235.098 260.041 236.242 259.975V259.767C234.401 260.191 232.676 261.018 231.192 262.187C231.079 262.274 231.235 262.431 231.34 262.344C232.802 261.201 234.495 260.394 236.303 259.975C236.326 259.969 236.348 259.955 236.362 259.935C236.377 259.915 236.385 259.891 236.385 259.867C236.385 259.842 236.377 259.818 236.362 259.798C236.348 259.778 236.326 259.764 236.303 259.758C235.13 259.826 233.965 259.992 232.82 260.254C231.7 260.563 230.642 261.063 229.694 261.734C229.581 261.813 229.694 262.004 229.807 261.926H229.772Z" fill="black"/>
<path d="M207.006 259.763C208.417 261.582 209.854 263.463 212.057 264.36L212.117 264.152C211.525 263.951 210.959 263.698 210.376 263.498C210.237 263.498 210.185 263.663 210.315 263.707C210.907 263.907 211.474 264.16 212.057 264.36C212.196 264.404 212.24 264.203 212.117 264.152C209.959 263.28 208.539 261.391 207.155 259.606C207.067 259.493 206.92 259.606 207.006 259.763Z" fill="black"/>
<path d="M299.64 114.409H275.453C273.76 114.409 272.386 115.783 272.386 117.476V132.886C272.386 134.579 273.76 135.953 275.453 135.953H299.64C301.333 135.953 302.707 134.579 302.707 132.886V117.476C302.707 115.783 301.333 114.409 299.64 114.409Z" fill="#E9BB66"/>
<path d="M293.774 141.451L298.113 132.766H289.428L293.774 141.451Z" fill="#E9BB66"/>
<path d="M282.512 125.181C282.502 125.027 282.524 124.872 282.577 124.727C282.63 124.582 282.713 124.45 282.819 124.338C282.926 124.227 283.055 124.139 283.198 124.079C283.34 124.021 283.494 123.992 283.648 123.995C283.948 124.018 284.227 124.153 284.432 124.374C284.636 124.594 284.749 124.884 284.749 125.184C284.749 125.485 284.636 125.774 284.432 125.994C284.227 126.215 283.948 126.351 283.648 126.374C283.493 126.377 283.339 126.348 283.196 126.289C283.052 126.229 282.924 126.14 282.817 126.028C282.71 125.916 282.627 125.782 282.575 125.636C282.522 125.49 282.501 125.336 282.512 125.181Z" fill="white"/>
<path d="M286.425 125.181C286.438 124.963 286.516 124.752 286.648 124.577C286.78 124.401 286.96 124.269 287.167 124.195C287.374 124.122 287.598 124.11 287.81 124.163C288.024 124.214 288.217 124.328 288.366 124.489C288.515 124.65 288.614 124.851 288.651 125.067C288.686 125.283 288.659 125.505 288.57 125.706C288.481 125.907 288.336 126.077 288.151 126.196C287.967 126.314 287.752 126.376 287.532 126.374C287.379 126.374 287.229 126.342 287.089 126.28C286.949 126.219 286.823 126.13 286.72 126.018C286.616 125.906 286.536 125.774 286.485 125.63C286.434 125.486 286.413 125.333 286.425 125.181Z" fill="white"/>
<path d="M290.33 125.181C290.344 124.963 290.421 124.752 290.554 124.577C290.686 124.401 290.866 124.269 291.073 124.195C291.279 124.122 291.503 124.11 291.716 124.163C291.929 124.214 292.122 124.328 292.271 124.489C292.421 124.65 292.52 124.851 292.556 125.067C292.592 125.283 292.564 125.505 292.475 125.706C292.386 125.907 292.241 126.077 292.057 126.196C291.872 126.314 291.657 126.376 291.437 126.374C291.285 126.374 291.134 126.342 290.994 126.28C290.855 126.219 290.728 126.13 290.625 126.018C290.521 125.906 290.441 125.774 290.39 125.63C290.34 125.486 290.319 125.333 290.33 125.181Z" fill="white"/>
<path d="M389.111 91.6858H364.925C363.231 91.6858 361.857 93.0596 361.857 94.754V110.163C361.857 111.857 363.231 113.23 364.925 113.23H389.111C390.805 113.23 392.178 111.857 392.178 110.163V94.754C392.178 93.0596 390.805 91.6858 389.111 91.6858Z" fill="#E9BB66"/>
<path fill-rule="evenodd" clip-rule="evenodd" d="M376.77 107.663C373.829 107.663 371.444 105.278 371.444 102.337C371.444 99.3959 373.829 97.011 376.77 97.011C379.711 97.011 382.095 99.3959 382.095 102.337C382.095 105.278 379.711 107.663 376.77 107.663ZM376.77 107.13C379.417 107.13 381.563 104.984 381.563 102.337C381.563 99.6896 379.417 97.5435 376.77 97.5435C374.122 97.5435 371.976 99.6896 371.976 102.337C371.976 104.984 374.122 107.13 376.77 107.13ZM379.244 100.493L379.621 100.869L376.122 104.368L373.918 102.164L374.295 101.788L376.122 103.615L379.244 100.493Z" fill="white"/>
<path d="M379.244 100.493L379.525 100.212C379.45 100.137 379.349 100.096 379.244 100.096C379.139 100.096 379.038 100.137 378.964 100.212L379.244 100.493ZM379.621 100.869L379.902 101.15C380.056 100.994 380.056 100.744 379.902 100.589L379.621 100.869ZM376.122 104.368L375.841 104.648C375.916 104.723 376.017 104.765 376.122 104.765C376.227 104.765 376.328 104.723 376.402 104.648L376.122 104.368ZM373.918 102.164L373.638 101.884C373.483 102.039 373.483 102.29 373.638 102.445L373.918 102.164ZM374.295 101.788L374.575 101.507C374.501 101.433 374.4 101.391 374.295 101.391C374.19 101.391 374.089 101.433 374.014 101.507L374.295 101.788ZM376.122 103.615L375.841 103.895C375.916 103.97 376.017 104.012 376.122 104.012C376.227 104.012 376.328 103.97 376.402 103.895L376.122 103.615ZM376.77 107.266C374.048 107.266 371.841 105.06 371.841 102.337H371.047C371.047 105.498 373.609 108.06 376.77 108.06V107.266ZM371.841 102.337C371.841 99.6151 374.048 97.4079 376.77 97.4079V96.6143C373.609 96.6143 371.047 99.177 371.047 102.337H371.841ZM376.77 97.4079C379.491 97.4079 381.698 99.6151 381.698 102.337H382.492C382.492 99.177 379.93 96.6143 376.77 96.6143V97.4079ZM381.698 102.337C381.698 105.06 379.491 107.266 376.77 107.266V108.06C379.93 108.06 382.492 105.498 382.492 102.337H381.698ZM376.77 107.527C379.636 107.527 381.96 105.203 381.96 102.337H381.166C381.166 104.765 379.198 106.733 376.77 106.733V107.527ZM381.96 102.337C381.96 99.4706 379.636 97.1468 376.77 97.1468V97.9405C379.198 97.9405 381.166 99.9087 381.166 102.337H381.96ZM376.77 97.1468C373.903 97.1468 371.579 99.4706 371.579 102.337H372.373C372.373 99.9087 374.341 97.9405 376.77 97.9405V97.1468ZM371.579 102.337C371.579 105.203 373.903 107.527 376.77 107.527V106.733C374.341 106.733 372.373 104.765 372.373 102.337H371.579ZM378.964 100.773L379.34 101.15L379.902 100.589L379.525 100.212L378.964 100.773ZM379.34 100.589L375.841 104.087L376.402 104.648L379.902 101.15L379.34 100.589ZM376.402 104.087L374.199 101.884L373.638 102.445L375.841 104.648L376.402 104.087ZM374.199 102.445L374.575 102.068L374.014 101.507L373.638 101.884L374.199 102.445ZM374.014 102.068L375.841 103.895L376.402 103.334L374.575 101.507L374.014 102.068ZM376.402 103.895L379.525 100.773L378.964 100.212L375.841 103.334L376.402 103.895Z" fill="white"/>
<path d="M370.456 118.727L374.802 110.036H366.118L370.456 118.727Z" fill="#E9BB66"/>
<path d="M477.101 133.581H452.158C450.41 133.581 448.994 134.998 448.994 136.745V152.637C448.994 154.383 450.41 155.8 452.158 155.8H477.101C478.848 155.8 480.264 154.383 480.264 152.637V136.745C480.264 134.998 478.848 133.581 477.101 133.581Z" fill="#E9BB66"/>
<path d="M441.388 144.825L450.344 149.306V140.343L441.388 144.825Z" fill="#E9BB66"/>
<path fill-rule="evenodd" clip-rule="evenodd" d="M470.03 140.506L470.445 141.075L465.051 145.004L459.658 141.075L460.073 140.506L465.051 144.132L470.03 140.506ZM458.713 139.638V149.498H471.39V139.638H458.713ZM458.009 138.934H472.094V150.202H458.009V138.934Z" fill="white"/>
<mask id="mask1_595_4803" style="mask-type:luminance" maskUnits="userSpaceOnUse" x="457" y="138" width="16" height="13">
<path d="M472.294 138.14H457.215V150.839H472.294V138.14Z" fill="white"/>
<path fill-rule="evenodd" clip-rule="evenodd" d="M470.03 140.506L470.445 141.075L465.052 145.004L459.658 141.075L460.073 140.506L465.052 144.132L470.03 140.506ZM458.713 139.638V149.498H471.391V139.638H458.713ZM458.009 138.934H472.094V150.202H458.009V138.934Z" fill="white"/>
</mask>
<g mask="url(#mask1_595_4803)">
<path d="M470.03 140.506L470.094 140.46L470.048 140.395L469.983 140.442L470.03 140.506ZM470.445 141.075L470.492 141.14L470.556 141.093L470.51 141.029L470.445 141.075ZM465.052 145.004L465.005 145.068L465.052 145.102L465.098 145.068L465.052 145.004ZM459.658 141.075L459.594 141.029L459.548 141.093L459.611 141.14L459.658 141.075ZM460.073 140.506L460.12 140.442L460.056 140.395L460.009 140.46L460.073 140.506ZM465.052 144.133L465.005 144.197L465.052 144.231L465.098 144.197L465.052 144.133ZM458.713 139.638V139.559H458.633V139.638H458.713ZM458.713 149.498H458.633V149.578H458.713V149.498ZM471.391 149.498V149.578H471.47V149.498H471.391ZM471.391 139.638H471.47V139.559H471.391V139.638ZM458.009 138.934V138.855H457.929V138.934H458.009ZM472.094 138.934H472.174V138.855H472.094V138.934ZM472.094 150.202V150.282H472.174V150.202H472.094ZM458.009 150.202H457.929V150.282H458.009V150.202ZM469.966 140.552L470.381 141.122L470.51 141.029L470.094 140.46L469.966 140.552ZM470.398 141.011L465.005 144.94L465.098 145.068L470.492 141.14L470.398 141.011ZM465.098 144.94L459.705 141.011L459.611 141.14L465.005 145.068L465.098 144.94ZM459.722 141.122L460.137 140.552L460.009 140.46L459.594 141.029L459.722 141.122ZM460.026 140.57L465.005 144.197L465.098 144.068L460.12 140.442L460.026 140.57ZM465.098 144.197L470.077 140.57L469.983 140.442L465.005 144.068L465.098 144.197ZM458.633 139.638V149.498H458.792V139.638H458.633ZM458.713 149.578H471.391V149.419H458.713V149.578ZM471.47 149.498V139.638H471.311V149.498H471.47ZM471.391 139.559H458.713V139.717H471.391V139.559ZM458.009 139.013H472.094V138.855H458.009V139.013ZM472.015 138.934V150.202H472.174V138.934H472.015ZM472.094 150.123H458.009V150.282H472.094V150.123ZM458.088 150.202V138.934H457.929V150.202H458.088Z" fill="white"/>
</g>
</g>
</g>
<defs>
<clipPath id="clip0_595_4803">
<rect width="559.524" height="300" fill="white"/>
</clipPath>
</defs>
</svg>
