<svg width="30" height="24" viewBox="0 0 30 24" fill="none" xmlns="http://www.w3.org/2000/svg">
<path d="M10.5 12C12.0913 12 13.6174 11.3679 14.7426 10.2426C15.8679 9.11742 16.5 7.5913 16.5 6C16.5 4.4087 15.8679 2.88258 14.7426 1.75736C13.6174 0.632141 12.0913 0 10.5 0C8.9087 0 7.38258 0.632141 6.25736 1.75736C5.13214 2.88258 4.5 4.4087 4.5 6C4.5 7.5913 5.13214 9.11742 6.25736 10.2426C7.38258 11.3679 8.9087 12 10.5 12ZM8.35781 14.25C3.74062 14.25 0 17.9906 0 22.6078C0 23.3766 0.623438 24 1.39219 24H15.1312C14.9859 23.5875 14.9578 23.1375 15.0656 22.6969L15.7687 19.8797C15.9 19.35 16.1719 18.8719 16.5562 18.4875L18.4453 16.5984C16.9406 15.1453 14.8969 14.25 12.6375 14.25H8.35781ZM28.7719 11.0484C28.0406 10.3172 26.8547 10.3172 26.1187 11.0484L24.7406 12.4266L28.0687 15.7547L29.4469 14.3766C30.1781 13.6453 30.1781 12.4594 29.4469 11.7234L28.7719 11.0484ZM17.6203 19.5469C17.4281 19.7391 17.2922 19.9781 17.2266 20.2453L16.5234 23.0625C16.4578 23.3203 16.5328 23.5875 16.7203 23.775C16.9078 23.9625 17.175 24.0375 17.4328 23.9719L20.25 23.2687C20.5125 23.2031 20.7562 23.0672 20.9484 22.875L27.0047 16.8141L23.6766 13.4859L17.6203 19.5469Z" fill="black"/>
</svg>
