<svg width="24" height="24" viewBox="0 0 24 24" fill="none" xmlns="http://www.w3.org/2000/svg">
<path d="M8.46935 3.74994H16.0317C16.2216 3.74994 16.3755 3.59602 16.3755 3.4062V2.03122C16.3856 1.7688 16.2917 1.51312 16.1138 1.31996C15.9361 1.12675 15.6891 1.01166 15.4268 1H9.07441C8.81215 1.01166 8.56508 1.12676 8.38739 1.31996C8.20953 1.51316 8.11561 1.76883 8.12574 2.03122V3.4062C8.12574 3.59602 8.27966 3.74994 8.46949 3.74994H8.46935ZM8.81309 2.03122C8.81309 1.84492 8.93264 1.68747 9.07427 1.68747H15.4267C15.5683 1.68747 15.6879 1.84492 15.6879 2.03122V3.06245H8.81296L8.81309 2.03122Z" fill="#1C1C1C"/>
<path d="M11.5625 18.875C11.3727 18.875 11.2188 19.0289 11.2188 19.2187C11.2188 19.4086 11.3727 19.5625 11.5625 19.5625H15.253L14.5586 18.875H11.5625Z" fill="#1C1C1C"/>
<path d="M11.5625 17.5C11.3727 17.5 11.2188 17.6539 11.2188 17.8437C11.2188 18.0336 11.3727 18.1875 11.5625 18.1875H13.8642L13.1698 17.5H11.5625Z" fill="#1C1C1C"/>
<path d="M6.75097 16.8125C6.56115 16.8125 6.40723 16.9664 6.40723 17.1562V19.9062C6.40723 20.096 6.56115 20.25 6.75097 20.25H9.50093C9.69076 20.25 9.84468 20.096 9.84468 19.9062V17.1562C9.84468 16.9664 9.69076 16.8125 9.50093 16.8125H6.75097ZM7.09472 19.5625V17.5H9.15719V17.953L8.3606 18.4767L8.18198 18.2835C8.05307 18.1442 7.83562 18.1358 7.69629 18.2645C7.55695 18.3934 7.54836 18.6109 7.67711 18.7502L8.05354 19.1575C8.16771 19.2808 8.35432 19.3036 8.49487 19.2113L9.15718 18.7758V19.5624L7.09472 19.5625Z" fill="#1C1C1C"/>
<path d="M17.0629 8.5625H14.4873C14.5436 8.78885 14.5858 9.0184 14.6136 9.24999H17.063C17.2528 9.24999 17.4067 9.09607 17.4067 8.90625C17.4067 8.71642 17.2527 8.5625 17.0629 8.5625Z" fill="#1C1C1C"/>
<path d="M5.37598 5.56554V3.23436C5.37613 3.04453 5.5299 2.89077 5.71972 2.89062H7.43845V2.20312H5.71972C5.44626 2.20343 5.18415 2.31223 4.99079 2.50544C4.79758 2.69879 4.68878 2.96091 4.68848 3.23437V6.24153C4.89825 5.99723 5.12813 5.771 5.37598 5.56554Z" fill="#1C1C1C"/>
<path d="M18.782 2.20312H17.0633V2.89062H18.782C18.9719 2.89077 19.1256 3.04453 19.1258 3.23436V21.9687C19.1256 22.1585 18.9719 22.3123 18.782 22.3124H5.71971C5.52989 22.3123 5.37612 22.1585 5.37597 21.9687V14.3096C5.12813 14.1042 4.89826 13.878 4.68848 13.6337V21.9688C4.68878 22.2423 4.79758 22.5044 4.99079 22.6977C5.18415 22.8909 5.44626 22.9997 5.71972 23H18.782C19.0555 22.9997 19.3176 22.8909 19.511 22.6977C19.7042 22.5044 19.813 22.2423 19.8133 21.9688V3.23448C19.813 2.96102 19.7042 2.6989 19.511 2.50554C19.3176 2.31234 19.0555 2.20354 18.782 2.20323L18.782 2.20312Z" fill="#1C1C1C"/>
<path d="M8.98467 14.9221C9.92736 14.9229 10.8506 14.6547 11.6461 14.149L12.2036 14.7067L12.0121 14.8908V14.8907C11.9461 14.9554 11.9086 15.0437 11.9079 15.136C11.9073 15.2284 11.9433 15.3173 12.0084 15.3828L16.4771 19.8071C16.6121 19.9403 16.8294 19.9391 16.9628 19.8043C17.0963 19.6694 17.0953 19.4521 16.9608 19.3185L12.7423 15.1425L14.0814 13.8556L15.8235 15.5774C15.9585 15.7107 16.1759 15.7093 16.3093 15.5744C16.4428 15.4394 16.4416 15.222 16.3067 15.0884L14.3263 13.1311C14.1939 13.0001 13.9809 12.9985 13.8466 13.1277L13.751 13.2195L13.1703 12.6388V12.639C13.9758 11.3889 14.1809 9.8445 13.7294 8.4276C13.2779 7.0109 12.2172 5.86979 10.8371 5.3161C9.45694 4.76257 7.90179 4.85434 6.59631 5.56654C5.29086 6.27859 4.37179 7.53662 4.09019 8.99677C3.80859 10.4568 4.19393 11.9663 5.14091 13.1131C6.08788 14.2596 7.49739 14.9231 8.98441 14.9225L8.98467 14.9221ZM13.2518 13.6923L12.6994 14.2302L12.2062 13.7368V13.7366C12.4023 13.57 12.5852 13.3886 12.7536 13.1939L13.2518 13.6923ZM8.98467 5.64082C10.1243 5.64082 11.2172 6.09351 12.023 6.89932C12.8288 7.70514 13.2815 8.79805 13.2815 9.93764C13.2815 11.0772 12.8288 12.1701 12.023 12.976C11.2172 13.7818 10.1243 14.2345 8.98467 14.2345C7.84508 14.2345 6.75217 13.7818 5.94635 12.976C5.14054 12.1701 4.68785 11.0772 4.68785 9.93764C4.68908 8.79837 5.14223 7.7062 5.94773 6.9007C6.75323 6.0952 7.8454 5.64204 8.98467 5.64082Z" fill="#1C1C1C"/>
<path d="M8.0312 11.3995C8.15903 11.5112 8.34917 11.5127 8.47886 11.4033L10.9247 9.34085C11.0698 9.21854 11.0883 9.00155 10.9658 8.85654C10.8435 8.71137 10.6265 8.69295 10.4815 8.81541L8.26125 10.6876L7.49181 10.0157H7.49166C7.34864 9.89097 7.13165 9.90555 7.00672 10.0486C6.88181 10.1916 6.89654 10.4087 7.03956 10.5335L8.0312 11.3995Z" fill="#1C1C1C"/>
<path d="M17.4062 16.2969C17.4062 16.4867 17.2523 16.6406 17.0625 16.6406C16.8727 16.6406 16.7188 16.4867 16.7188 16.2969C16.7188 16.107 16.8727 15.9531 17.0625 15.9531C17.2523 15.9531 17.4062 16.107 17.4062 16.2969Z" fill="#1C1C1C"/>
<path d="M17.0626 9.9375H14.6564C14.6559 10.1674 14.6415 10.3969 14.6133 10.625H17.0626C17.2525 10.625 17.4064 10.4711 17.4064 10.2812C17.4064 10.0914 17.2524 9.9375 17.0626 9.9375Z" fill="#1C1C1C"/>
</svg>
