<svg width="24" height="24" viewBox="0 0 24 24" fill="none" xmlns="http://www.w3.org/2000/svg">
<path d="M0 4.5C0 3.30653 0.474106 2.16193 1.31802 1.31802C2.16193 0.474106 3.30653 0 4.5 0H16.5C17.6935 0 18.8381 0.474106 19.682 1.31802C20.5259 2.16193 21 3.30653 21 4.5V9.9C19.4472 9.10675 17.6829 8.8259 15.9606 9.09777C14.2382 9.36964 12.6462 10.1803 11.4132 11.4132C10.1803 12.6462 9.36964 14.2382 9.09777 15.9606C8.8259 17.6829 9.10675 19.4472 9.9 21H4.5C3.30653 21 2.16193 20.5259 1.31802 19.682C0.474106 18.8381 0 17.6935 0 16.5V4.5ZM9.531 5.094C9.46133 5.02416 9.37857 4.96874 9.28745 4.93093C9.19633 4.89312 9.09865 4.87366 9 4.87366C8.90135 4.87366 8.80367 4.89312 8.71255 4.93093C8.62143 4.96874 8.53867 5.02416 8.469 5.094L6.351 7.212L5.7555 6.669C5.60754 6.54253 5.41621 6.47854 5.22193 6.49055C5.02766 6.50256 4.84566 6.58962 4.7144 6.73335C4.58314 6.87707 4.5129 7.0662 4.51851 7.26076C4.52413 7.45533 4.60517 7.64009 4.7445 7.776L5.8695 8.8035C6.01204 8.93328 6.19908 9.00319 6.3918 8.99872C6.58453 8.99425 6.76813 8.91575 6.9045 8.7795L9.5295 6.1545C9.6701 6.01385 9.74909 5.82312 9.74909 5.62425C9.74909 5.42538 9.6701 5.23465 9.5295 5.094H9.531ZM9.531 13.656C9.67183 13.5152 9.75095 13.3242 9.75095 13.125C9.75095 12.9258 9.67183 12.7348 9.531 12.594C9.39017 12.4532 9.19916 12.3741 9 12.3741C8.80084 12.3741 8.60983 12.4532 8.469 12.594L6.351 14.712L5.7555 14.169C5.60754 14.0425 5.41621 13.9785 5.22193 13.9905C5.02766 14.0026 4.84566 14.0896 4.7144 14.2333C4.58314 14.3771 4.5129 14.5662 4.51851 14.7608C4.52413 14.9553 4.60517 15.1401 4.7445 15.276L5.8695 16.3035C6.01185 16.4335 6.19879 16.5037 6.3915 16.4995C6.58422 16.4953 6.76793 16.417 6.9045 16.281L9.5295 13.656H9.531ZM12 6C11.8011 6 11.6103 6.07902 11.4697 6.21967C11.329 6.36032 11.25 6.55109 11.25 6.75C11.25 6.94891 11.329 7.13968 11.4697 7.28033C11.6103 7.42098 11.8011 7.5 12 7.5H15.75C15.9489 7.5 16.1397 7.42098 16.2803 7.28033C16.421 7.13968 16.5 6.94891 16.5 6.75C16.5 6.55109 16.421 6.36032 16.2803 6.21967C16.1397 6.07902 15.9489 6 15.75 6H12ZM24 17.25C24 15.4598 23.2888 13.7429 22.023 12.477C20.7571 11.2112 19.0402 10.5 17.25 10.5C15.4598 10.5 13.7429 11.2112 12.477 12.477C11.2112 13.7429 10.5 15.4598 10.5 17.25C10.5 19.0402 11.2112 20.7571 12.477 22.023C13.7429 23.2888 15.4598 24 17.25 24C19.0402 24 20.7571 23.2888 22.023 22.023C23.2888 20.7571 24 19.0402 24 17.25ZM18 14.25V16.5H20.25C20.4489 16.5 20.6397 16.579 20.7803 16.7197C20.921 16.8603 21 17.0511 21 17.25C21 17.4489 20.921 17.6397 20.7803 17.7803C20.6397 17.921 20.4489 18 20.25 18H18V20.25C18 20.4489 17.921 20.6397 17.7803 20.7803C17.6397 20.921 17.4489 21 17.25 21C17.0511 21 16.8603 20.921 16.7197 20.7803C16.579 20.6397 16.5 20.4489 16.5 20.25V18H14.25C14.0511 18 13.8603 17.921 13.7197 17.7803C13.579 17.6397 13.5 17.4489 13.5 17.25C13.5 17.0511 13.579 16.8603 13.7197 16.7197C13.8603 16.579 14.0511 16.5 14.25 16.5H16.5V14.25C16.5 14.0511 16.579 13.8603 16.7197 13.7197C16.8603 13.579 17.0511 13.5 17.25 13.5C17.4489 13.5 17.6397 13.579 17.7803 13.7197C17.921 13.8603 18 14.0511 18 14.25Z" fill="#0F56B3"/>
</svg>
