<svg width="25" height="24" viewBox="0 0 25 24" fill="none" xmlns="http://www.w3.org/2000/svg">
<path d="M18.2156 1C16.2645 1 14.6777 2.58696 14.6777 4.53808C14.6777 6.48921 16.2647 8.07598 18.2156 8.07598C20.1668 8.07598 21.7535 6.48903 21.7535 4.53808C21.7535 2.58696 20.1666 1 18.2156 1ZM18.2156 1.49882C19.8971 1.49882 21.2547 2.85643 21.2547 4.53786C21.2547 6.21929 19.8971 7.5769 18.2156 7.5769C16.5342 7.5769 15.1766 6.21929 15.1766 4.53786C15.1766 2.85643 16.5342 1.49882 18.2156 1.49882Z" fill="black"/>
<path fill-rule="evenodd" clip-rule="evenodd" d="M18.2152 3.07915L16.7568 4.53787L17.0519 4.83243L18.0069 3.87707V5.99571H18.424V3.87738L19.379 4.83239L19.6741 4.53782L18.2153 3.0791L18.2152 3.07915Z" fill="black"/>
<path d="M3 4.29004V22.6998H18.4642V8.8123H17.9654V22.2009H3.49891V4.7889H4.9277V9.80156C5.51003 9.22132 6.09187 8.64055 6.67366 8.05991H6.67419C7.25598 8.64051 7.838 9.22128 8.42016 9.80156V4.7889H13.9415V4.29008L3 4.29004Z" fill="black"/>
<path d="M4.93262 11.0771V11.576H16.5307V11.0771H4.93262Z" fill="black"/>
<path d="M4.93262 12.5234V13.0223H16.5307V12.5234H4.93262Z" fill="black"/>
<path d="M4.93262 13.9697V14.4685H16.5307V13.9697H4.93262Z" fill="black"/>
<path d="M4.93262 15.415V15.9139H16.5307V15.415H4.93262Z" fill="black"/>
<path d="M4.93262 16.8613V17.3601H16.5307V16.8613H4.93262Z" fill="black"/>
<path d="M4.93262 18.5479V19.0467H10.7319V18.5479H4.93262Z" fill="black"/>
<path d="M14.2861 19.9619V20.4607H16.5309V19.9619H14.2861Z" fill="black"/>
</svg>
