<svg width="24" height="24" viewBox="0 0 24 24" fill="none" xmlns="http://www.w3.org/2000/svg">
<path d="M13.6483 4.62994H5.20972C4.54432 4.62994 4 5.17425 4 5.83966V21.5675C4 22.2329 4.54432 22.7772 5.20972 22.7772H16.0982C16.7636 22.7772 17.3079 22.2329 17.3079 21.5675V7.83588L13.9808 4.62988L13.6483 4.62994ZM16.552 20.9022C16.552 21.507 16.068 22.0212 15.4933 22.0212L5.81464 22.0214C5.20978 22.0214 4.75593 21.5374 4.75593 20.9024L4.75614 6.50539C4.75614 5.90052 5.24012 5.38635 5.81485 5.38635H13.6183V7.5035C13.6183 8.22945 14.2535 8.19909 14.2535 8.19909H16.522L16.5217 20.9023L16.552 20.9022ZM14.1928 5.90026L16.0077 7.65451H14.5861C14.5861 7.65451 14.1929 7.65451 14.1929 7.20091L14.1928 5.90026Z" fill="black"/>
<path d="M6.17773 10.3457H15.1002V10.9506H6.17773V10.3457Z" fill="black"/>
<path d="M6.17773 12.7656H15.1002V13.3705H6.17773V12.7656Z" fill="black"/>
<path d="M6.17773 15.1855H15.1002V15.7904H6.17773V15.1855Z" fill="black"/>
<path d="M6.17773 17.6055H15.1002V18.2103H6.17773V17.6055Z" fill="black"/>
<path d="M6.17773 7.92676H11.2589V8.53162H6.17773V7.92676Z" fill="black"/>
<path d="M16.7027 1H7.9314C7.26599 1 6.72168 1.54432 6.72168 2.20972V4.02458H7.47782V2.87518C7.47782 2.27032 7.9618 1.75614 8.53653 1.75614H16.3399V3.87329C16.3399 4.59925 16.9752 4.56889 16.9752 4.56889H19.2436V17.3024C19.2436 17.9072 18.7597 18.4214 18.1849 18.4214H17.9731V19.1473H18.7898C19.4552 19.1473 19.9995 18.603 19.9995 17.9376V4.20605L16.7027 1ZM17.3075 4.02458C17.3075 4.02458 16.9143 4.02458 16.9143 3.57098V2.27052L18.7291 4.02477L17.3075 4.02458Z" fill="black"/>
</svg>
