<svg width="22" height="24" viewBox="0 0 22 24" fill="none" xmlns="http://www.w3.org/2000/svg">
<path d="M14.2891 14.6765C14.1423 14.6285 13.2146 14.2103 13.7943 12.4482H13.786C15.2971 10.8919 16.4519 8.38755 16.4519 5.92202C16.4519 2.13094 13.9309 0.143555 11.0011 0.143555C8.06941 0.143555 5.56233 2.13002 5.56233 5.92202C5.56233 8.39771 6.71064 10.9122 8.23095 12.4648C8.82356 14.0192 7.76387 14.5962 7.54233 14.6765C4.47402 15.7869 0.874023 17.8094 0.874023 19.806V20.5546C0.874023 23.2749 6.14849 23.8934 11.0297 23.8934C15.9183 23.8934 21.1263 23.2749 21.1263 20.5546V19.806C21.1263 17.7494 17.5088 15.7426 14.2891 14.6765ZM9.19741 22.7156C9.19741 20.3626 10.6956 17.1863 10.6956 17.1863L9.65895 16.3731C9.65895 15.5959 11.0002 14.7826 11.0002 14.7826C11.0002 14.7826 12.3377 15.6088 12.3377 16.3731L11.3048 17.1863C11.3048 17.1863 12.8029 20.3506 12.8029 22.7414C12.8029 23.1162 9.19741 23.0294 9.19741 22.7156Z" fill="black"/>
</svg>
